<?xml version="1.0" standalone="no"?>
 <!DOCTYPE svg PUBLIC "-//W3C//DTD SVG 1.1//EN" 
 "http://www.w3.org/Graphics/SVG/1.1/DTD/svg11.dtd"> 
<svg xmlns="http://www.w3.org/2000/svg" version="1.1" 
    width="29.7002cm" height="21.0007cm" viewBox="0 0 116930 82680 ">
<title>SVG Picture created as sensor_node_v2-F.SilkS.svg date 2017/10/24 13:27:51 </title>
  <desc>Picture generated by PCBNEW </desc>
<g style="fill:#000000; fill-opacity:1;stroke:#000000; stroke-opacity:1;
stroke-linecap:round; stroke-linejoin:round; "
 transform="translate(0 0) scale(1 1)">
</g>
<g style="fill:#000000; fill-opacity:0.0; 
stroke:#000000; stroke-width:-0.000393701; stroke-opacity:1; 
stroke-linecap:round; stroke-linejoin:round;">
</g>
<g style="fill:#000000; fill-opacity:0.0; 
stroke:#000000; stroke-width:118.11; stroke-opacity:1; 
stroke-linecap:round; stroke-linejoin:round;">
<path d="M52134 42189
L52218 42217
L52359 42217
L52415 42189
L52443 42160
L52471 42104
L52471 42048
L52443 41992
L52415 41964
L52359 41935
L52246 41907
L52190 41879
L52162 41851
L52134 41795
L52134 41739
L52162 41682
L52190 41654
L52246 41626
L52387 41626
L52471 41654
" />
<path d="M52725 41907
L52921 41907
" />
<path d="M53006 42217
L52725 42217
L52725 41626
L53006 41626
" />
<path d="M53259 42217
L53259 41626
" />
<path d="M53821 42217
L53540 42217
L53540 41626
" />
</g>
<g style="fill:#000000; fill-opacity:0.0; 
stroke:#000000; stroke-width:39.3701; stroke-opacity:1; 
stroke-linecap:round; stroke-linejoin:round;">
<path d="M43167 30424
L43167 30149
" />
<path d="M43456 30424
L43364 30293
" />
<path d="M43299 30424
L43299 30149
L43404 30149
L43430 30162
L43443 30175
L43456 30201
L43456 30240
L43443 30267
L43430 30280
L43404 30293
L43299 30293
" />
<path d="M43758 30450
L43732 30437
L43705 30411
L43666 30372
L43640 30359
L43614 30359
" />
<path d="M43627 30424
L43600 30411
L43574 30385
L43561 30332
L43561 30240
L43574 30188
L43600 30162
L43627 30149
L43679 30149
L43705 30162
L43732 30188
L43745 30240
L43745 30332
L43732 30385
L43705 30411
L43679 30424
L43627 30424
" />
<path d="M43334 36398
L43321 36411
L43282 36424
L43255 36424
L43216 36411
L43190 36385
L43177 36359
L43164 36306
L43164 36267
L43177 36214
L43190 36188
L43216 36162
L43255 36149
L43282 36149
L43321 36162
L43334 36175
" />
<path d="M43439 36411
L43479 36424
L43544 36424
L43570 36411
L43584 36398
L43597 36372
L43597 36345
L43584 36319
L43570 36306
L43544 36293
L43492 36280
L43465 36267
L43452 36254
L43439 36227
L43439 36201
L43452 36175
L43465 36162
L43492 36149
L43557 36149
L43597 36162
" />
<path d="M43715 36424
L43715 36149
L43872 36424
L43872 36149
" />
<path d="M43485 35373
L43472 35386
L43433 35399
L43406 35399
L43367 35386
L43341 35360
L43328 35334
L43315 35281
L43315 35242
L43328 35189
L43341 35163
L43367 35137
L43406 35124
L43433 35124
L43472 35137
L43485 35150
" />
<path d="M43603 35255
L43695 35255
" />
<path d="M43734 35399
L43603 35399
L43603 35124
L43734 35124
" />
<path d="M51641 36424
L51641 36149
L51733 36345
L51825 36149
L51825 36424
" />
<path d="M52009 36149
L52061 36149
L52088 36162
L52114 36188
L52127 36240
L52127 36332
L52114 36385
L52088 36411
L52061 36424
L52009 36424
L51983 36411
L51956 36385
L51943 36332
L51943 36240
L51956 36188
L51983 36162
L52009 36149
" />
<path d="M52232 36411
L52271 36424
L52337 36424
L52363 36411
L52376 36398
L52389 36372
L52389 36345
L52376 36319
L52363 36306
L52337 36293
L52284 36280
L52258 36267
L52245 36254
L52232 36227
L52232 36201
L52245 36175
L52258 36162
L52284 36149
L52350 36149
L52389 36162
" />
<path d="M52508 36424
L52508 36149
" />
<path d="M51641 35424
L51641 35149
L51733 35345
L51825 35149
L51825 35424
" />
<path d="M51956 35424
L51956 35149
" />
<path d="M52075 35411
L52114 35424
L52179 35424
L52206 35411
L52219 35398
L52232 35372
L52232 35345
L52219 35319
L52206 35306
L52179 35293
L52127 35280
L52101 35267
L52088 35254
L52075 35227
L52075 35201
L52088 35175
L52101 35162
L52127 35149
L52193 35149
L52232 35162
" />
<path d="M52403 35149
L52455 35149
L52481 35162
L52508 35188
L52521 35240
L52521 35332
L52508 35385
L52481 35411
L52455 35424
L52403 35424
L52376 35411
L52350 35385
L52337 35332
L52337 35240
L52350 35188
L52376 35162
L52403 35149
" />
<path d="M51670 34436
L51710 34449
L51775 34449
L51801 34436
L51815 34423
L51828 34397
L51828 34370
L51815 34344
L51801 34331
L51775 34318
L51723 34305
L51696 34292
L51683 34279
L51670 34252
L51670 34226
L51683 34200
L51696 34187
L51723 34174
L51788 34174
L51828 34187
" />
<path d="M52103 34423
L52090 34436
L52051 34449
L52025 34449
L51985 34436
L51959 34410
L51946 34384
L51933 34331
L51933 34292
L51946 34239
L51959 34213
L51985 34187
L52025 34174
L52051 34174
L52090 34187
L52103 34200
" />
<path d="M52221 34449
L52221 34174
" />
<path d="M52379 34449
L52261 34292
" />
<path d="M52379 34174
L52221 34331
" />
<path d="M43365 29137
L43338 29124
L43299 29124
L43260 29137
L43233 29163
L43220 29189
L43207 29242
L43207 29281
L43220 29334
L43233 29360
L43260 29386
L43299 29399
L43325 29399
L43365 29386
L43378 29373
L43378 29281
L43325 29281
" />
<path d="M43496 29399
L43496 29124
L43653 29399
L43653 29124
" />
<path d="M43784 29399
L43784 29124
L43850 29124
L43889 29137
L43916 29163
L43929 29189
L43942 29242
L43942 29281
L43929 29334
L43916 29360
L43889 29386
L43850 29399
L43784 29399
" />
<path d="M51740 27162
L51713 27149
L51674 27149
L51635 27162
L51608 27188
L51595 27214
L51582 27267
L51582 27306
L51595 27359
L51608 27385
L51635 27411
L51674 27424
L51700 27424
L51740 27411
L51753 27398
L51753 27306
L51700 27306
" />
<path d="M51871 27424
L51871 27149
L52028 27424
L52028 27149
" />
<path d="M52159 27424
L52159 27149
L52225 27149
L52264 27162
L52291 27188
L52304 27214
L52317 27267
L52317 27306
L52304 27359
L52291 27385
L52264 27411
L52225 27424
L52159 27424
" />
<path d="M51607 29124
L51699 29399
L51791 29124
" />
<path d="M52040 29373
L52027 29386
L51988 29399
L51961 29399
L51922 29386
L51896 29360
L51883 29334
L51870 29281
L51870 29242
L51883 29189
L51896 29163
L51922 29137
L51961 29124
L51988 29124
L52027 29137
L52040 29150
" />
<path d="M52316 29373
L52303 29386
L52263 29399
L52237 29399
L52198 29386
L52171 29360
L52158 29334
L52145 29281
L52145 29242
L52158 29189
L52171 29163
L52198 29137
L52237 29124
L52263 29124
L52303 29137
L52316 29150
" />
<path d="M52165 39887
L52138 39874
L52099 39874
L52060 39887
L52033 39913
L52020 39939
L52007 39992
L52007 40031
L52020 40084
L52033 40110
L52060 40136
L52099 40149
L52125 40149
L52165 40136
L52178 40123
L52178 40031
L52125 40031
" />
<path d="M52296 40149
L52296 39874
L52453 40149
L52453 39874
" />
<path d="M52584 40149
L52584 39874
L52650 39874
L52689 39887
L52716 39913
L52729 39939
L52742 39992
L52742 40031
L52729 40084
L52716 40110
L52689 40136
L52650 40149
L52584 40149
" />
<path d="M52032 38799
L52124 39074
L52216 38799
" />
<path d="M52465 39048
L52452 39061
L52413 39074
L52386 39074
L52347 39061
L52321 39035
L52308 39009
L52295 38956
L52295 38917
L52308 38864
L52321 38838
L52347 38812
L52386 38799
L52413 38799
L52452 38812
L52465 38825
" />
<path d="M52741 39048
L52728 39061
L52688 39074
L52662 39074
L52623 39061
L52596 39035
L52583 39009
L52570 38956
L52570 38917
L52583 38864
L52596 38838
L52623 38812
L52662 38799
L52688 38799
L52728 38812
L52741 38825
" />
<path d="M53221 40905
L53260 40918
L53274 40931
L53287 40957
L53287 40997
L53274 41023
L53260 41036
L53234 41049
L53129 41049
L53129 40774
L53221 40774
L53247 40787
L53260 40800
L53274 40826
L53274 40852
L53260 40879
L53247 40892
L53221 40905
L53129 40905
" />
<path d="M53392 40970
L53523 40970
" />
<path d="M53365 41049
L53457 40774
L53549 41049
" />
<path d="M53602 40774
L53759 40774
" />
<path d="M53680 41049
L53680 40774
" />
<path d="M44820 40300
L44820 40154
L44910 40233
L44910 40199
L44921 40176
L44933 40165
L44955 40154
L45011 40154
L45034 40165
L45045 40176
L45056 40199
L45056 40266
L45045 40289
L45034 40300
" />
<path d="M44820 40086
L45056 40008
L44820 39929
" />
<path d="M44820 39873
L44820 39726
L44910 39805
L44910 39771
L44921 39749
L44933 39738
L44955 39726
L45011 39726
L45034 39738
L45045 39749
L45056 39771
L45056 39839
L45045 39861
L45034 39873
" />
<path d="M45079 39681
L45079 39501
" />
<path d="M45056 39310
L44944 39389
" />
<path d="M45056 39445
L44820 39445
L44820 39355
L44831 39333
L44843 39321
L44865 39310
L44899 39310
L44921 39321
L44933 39333
L44944 39355
L44944 39445
" />
<path d="M44824 42467
L45099 42375
L44824 42283
" />
<path d="M45073 42034
L45086 42047
L45099 42086
L45099 42113
L45086 42152
L45060 42178
L45034 42191
L44981 42204
L44942 42204
L44889 42191
L44863 42178
L44837 42152
L44824 42113
L44824 42086
L44837 42047
L44850 42034
" />
<path d="M45073 41758
L45086 41771
L45099 41811
L45099 41837
L45086 41876
L45060 41903
L45034 41916
L44981 41929
L44942 41929
L44889 41916
L44863 41903
L44837 41876
L44824 41837
L44824 41811
L44837 41771
L44850 41758
" />
<path d="M42762 39059
L42749 39086
L42749 39125
L42762 39164
L42788 39191
L42814 39204
L42867 39217
L42906 39217
L42959 39204
L42985 39191
L43011 39164
L43024 39125
L43024 39099
L43011 39059
L42998 39046
L42906 39046
L42906 39099
" />
<path d="M43024 38928
L42749 38928
L43024 38771
L42749 38771
" />
<path d="M43024 38640
L42749 38640
L42749 38574
L42762 38535
L42788 38508
L42814 38495
L42867 38482
L42906 38482
L42959 38495
L42985 38508
L43011 38535
L43024 38574
L43024 38640
" />
<path d="M43011 40234
L43024 40195
L43024 40129
L43011 40103
L42998 40090
L42972 40077
L42945 40077
L42919 40090
L42906 40103
L42893 40129
L42880 40182
L42867 40208
L42854 40221
L42827 40234
L42801 40234
L42775 40221
L42762 40208
L42749 40182
L42749 40116
L42762 40077
" />
<path d="M43024 39959
L42749 39959
L42749 39893
L42762 39854
L42788 39827
L42814 39814
L42867 39801
L42906 39801
L42959 39814
L42985 39827
L43011 39854
L43024 39893
L43024 39959
" />
<path d="M42945 39696
L42945 39565
" />
<path d="M43024 39722
L42749 39630
L43024 39539
" />
<path d="M43011 41278
L43024 41238
L43024 41173
L43011 41146
L42998 41133
L42972 41120
L42945 41120
L42919 41133
L42906 41146
L42893 41173
L42880 41225
L42867 41251
L42854 41264
L42827 41278
L42801 41278
L42775 41264
L42762 41251
L42749 41225
L42749 41159
L42762 41120
" />
<path d="M42998 40845
L43011 40858
L43024 40897
L43024 40923
L43011 40963
L42985 40989
L42959 41002
L42906 41015
L42867 41015
L42814 41002
L42788 40989
L42762 40963
L42749 40923
L42749 40897
L42762 40858
L42775 40845
" />
<path d="M43024 40595
L43024 40726
L42749 40726
" />
<path d="M42749 42417
L43024 42325
L42749 42233
" />
<path d="M42998 41984
L43011 41997
L43024 42036
L43024 42063
L43011 42102
L42985 42128
L42959 42141
L42906 42154
L42867 42154
L42814 42141
L42788 42128
L42762 42102
L42749 42063
L42749 42036
L42762 41997
L42775 41984
" />
<path d="M42998 41708
L43011 41721
L43024 41761
L43024 41787
L43011 41826
L42985 41853
L42959 41866
L42906 41879
L42867 41879
L42814 41866
L42788 41853
L42762 41826
L42749 41787
L42749 41761
L42762 41721
L42775 41708
" />
</g>
<g style="fill:#000000; fill-opacity:0.0; 
stroke:#000000; stroke-width:47.2441; stroke-opacity:1; 
stroke-linecap:round; stroke-linejoin:round;">
<path d="M52976 39450
L52976 40473
" />
<path d="M52976 40473
L54023 40473
" />
<path d="M54023 40473
L54023 39450
" />
<path d="M54023 39450
L52976 39450
" />
<path d="M52976 38950
L52976 38426
" />
<path d="M52976 38426
L53500 38426
" />
<path d="M50164.5 41379.4 A822.835 822.835 0.0 0 0 50164.2 42833.1 " />
<path d="M50935.8 42833.1 A822.835 822.835 0.0 0 0 50935.5 41379.4 " />
<path d="M50935.5 41379.4 A822.835 822.835 0.0 0 0 50164.2 41379.5 " />
<path d="M49742 42106
L51357 42106
" />
<path d="M49742 42090
L51357 42090
" />
<path d="M49743 42074
L51356 42074
" />
<path d="M49744 42059
L51355 42059
" />
<path d="M49745 42043
L51354 42043
" />
<path d="M49746 42027
L51353 42027
" />
<path d="M49748 42011
L50242 42011
" />
<path d="M50857 42011
L51351 42011
" />
<path d="M49750 41996
L50242 41996
" />
<path d="M50857 41996
L51350 41996
" />
<path d="M49752 41980
L50242 41980
" />
<path d="M50857 41980
L51347 41980
" />
<path d="M49755 41964
L50242 41964
" />
<path d="M50857 41964
L51344 41964
" />
<path d="M49757 41948
L50242 41948
" />
<path d="M50857 41948
L51342 41948
" />
<path d="M49761 41933
L50242 41933
" />
<path d="M50857 41933
L51338 41933
" />
<path d="M49764 41917
L50242 41917
" />
<path d="M50857 41917
L51335 41917
" />
<path d="M49768 41901
L50242 41901
" />
<path d="M50857 41901
L51331 41901
" />
<path d="M49772 41885
L50242 41885
" />
<path d="M50857 41885
L51327 41885
" />
<path d="M49777 41870
L50242 41870
" />
<path d="M50857 41870
L51322 41870
" />
<path d="M49782 41854
L50242 41854
" />
<path d="M50857 41854
L51317 41854
" />
<path d="M49787 41838
L50242 41838
" />
<path d="M50857 41838
L51312 41838
" />
<path d="M49792 41822
L50242 41822
" />
<path d="M50857 41822
L51307 41822
" />
<path d="M49799 41806
L50242 41806
" />
<path d="M50857 41806
L51300 41806
" />
<path d="M49805 41790
L50242 41790
" />
<path d="M50857 41790
L51294 41790
" />
<path d="M49812 41775
L50242 41775
" />
<path d="M50857 41775
L51287 41775
" />
<path d="M49819 41759
L50242 41759
" />
<path d="M50857 41759
L51280 41759
" />
<path d="M49826 41743
L50242 41743
" />
<path d="M50857 41743
L51273 41743
" />
<path d="M49834 41727
L50242 41727
" />
<path d="M50857 41727
L51265 41727
" />
<path d="M49842 41712
L50242 41712
" />
<path d="M50857 41712
L51257 41712
" />
<path d="M49851 41696
L50242 41696
" />
<path d="M50857 41696
L51248 41696
" />
<path d="M49861 41680
L50242 41680
" />
<path d="M50857 41680
L51238 41680
" />
<path d="M49870 41664
L50242 41664
" />
<path d="M50857 41664
L51229 41664
" />
<path d="M49881 41649
L50242 41649
" />
<path d="M50857 41649
L51218 41649
" />
<path d="M49891 41633
L50242 41633
" />
<path d="M50857 41633
L51208 41633
" />
<path d="M49903 41617
L50242 41617
" />
<path d="M50857 41617
L51196 41617
" />
<path d="M49914 41601
L50242 41601
" />
<path d="M50857 41601
L51185 41601
" />
<path d="M49927 41586
L50242 41586
" />
<path d="M50857 41586
L51172 41586
" />
<path d="M49940 41570
L50242 41570
" />
<path d="M50857 41570
L51159 41570
" />
<path d="M49954 41554
L50242 41554
" />
<path d="M50857 41554
L51145 41554
" />
<path d="M49969 41538
L50242 41538
" />
<path d="M50857 41538
L51130 41538
" />
<path d="M49984 41523
L50242 41523
" />
<path d="M50857 41523
L51115 41523
" />
<path d="M50000 41507
L50242 41507
" />
<path d="M50857 41507
L51099 41507
" />
<path d="M50018 41491
L50242 41491
" />
<path d="M50857 41491
L51081 41491
" />
<path d="M50036 41475
L50242 41475
" />
<path d="M50857 41475
L51063 41475
" />
<path d="M50055 41460
L50242 41460
" />
<path d="M50857 41460
L51044 41460
" />
<path d="M50075 41444
L50242 41444
" />
<path d="M50857 41444
L51024 41444
" />
<path d="M50098 41428
L50242 41428
" />
<path d="M50857 41428
L51001 41428
" />
<path d="M50121 41412
L50242 41412
" />
<path d="M50857 41412
L50978 41412
" />
<path d="M50147 41397
L50952 41397
" />
<path d="M50175 41381
L50924 41381
" />
<path d="M50205 41365
L50894 41365
" />
<path d="M50240 41350
L50859 41350
" />
<path d="M50279 41334
L50820 41334
" />
<path d="M50326 41318
L50773 41318
" />
<path d="M50386 41302
L50713 41302
" />
<path d="M50485 41287
L50614 41287
" />
<path d="M50550 43169
L50550 42814
" />
<path d="M50372 42992
L50727 42992
" />
<path d="M41476 27000
L41476 38023
" />
<path d="M41476 38023
L42523 38023
" />
<path d="M42523 38023
L42523 27000
" />
<path d="M42523 27000
L41476 27000
" />
<path d="M41476 26500
L41476 25976
" />
<path d="M41476 25976
L42000 25976
" />
<path d="M43526 40450
L43526 42473
" />
<path d="M43526 42473
L44573 42473
" />
<path d="M44573 42473
L44573 40450
" />
<path d="M44573 40450
L43526 40450
" />
<path d="M43526 39950
L43526 39426
" />
<path d="M43526 39426
L44050 39426
" />
<path d="M52976 27000
L52976 38023
" />
<path d="M52976 38023
L54023 38023
" />
<path d="M54023 38023
L54023 27000
" />
<path d="M54023 27000
L52976 27000
" />
<path d="M52976 26500
L52976 25976
" />
<path d="M52976 25976
L53500 25976
" />
</g>
<g style="fill:#000000; fill-opacity:0.0; 
stroke:#000000; stroke-width:59.0551; stroke-opacity:1; 
stroke-linecap:round; stroke-linejoin:round;">
<path d="M50400 38800
L51450 38800
" />
<path d="M51450 38800
L51450 39850
" />
<path d="M48400 38850
L47400 38850
" />
<path d="M47400 38850
L47400 39850
" />
<path d="M50400 38850
L50400 39850
" />
<path d="M50400 39850
L51400 39850
" />
<path d="M48400 38850
L51400 38850
" />
<path d="M51400 38850
L51400 40850
" />
<path d="M51400 40850
L47400 40850
" />
<path d="M47400 40850
L47400 39850
" />
</g>
<g style="fill:#000000; fill-opacity:0.0; 
stroke:#000000; stroke-width:47.2441; stroke-opacity:1; 
stroke-linecap:round; stroke-linejoin:round;">
<path d="M42523 41450
L42523 38426
" />
<path d="M42523 38426
L41476 38426
" />
<path d="M41476 38426
L41476 41450
" />
<path d="M41476 41450
L42523 41450
" />
<path d="M42523 41950
L42523 42473
" />
<path d="M42523 42473
L42000 42473
" />
</g>
<g style="fill:#000000; fill-opacity:1.0; 
stroke:#000000; stroke-width:3.93701; stroke-opacity:1; 
stroke-linecap:round; stroke-linejoin:round;">
<polyline style="fill-rule:evenodd;"
points="48018,33303
48051,33478
48173,33528
48295,33578
48441,33479
48482,33451
48519,33427
48550,33406
48574,33391
48589,33382
48593,33380
48600,33385
48616,33399
48638,33420
48665,33446
48695,33476
48726,33507
48757,33539
48785,33568
48810,33595
48829,33616
48841,33629
48843,33634
48839,33643
48828,33661
48811,33688
48789,33722
48763,33760
48748,33782
48721,33821
48697,33857
48677,33887
48663,33910
48655,33924
48654,33926
48656,33934
48664,33953
48675,33980
48688,34012
48703,34048
48718,34083
48732,34116
48744,34143
48753,34163
48758,34173
48758,34173
48766,34175
48786,34179
48816,34185
48854,34192
48898,34201
48924,34206
48972,34215
49014,34223
49050,34231
49078,34237
49094,34242
49097,34243
49100,34253
49103,34274
49105,34305
49106,34344
49107,34386
49107,34431
49106,34475
49105,34516
49104,34551
49101,34578
49098,34594
49097,34597
49086,34602
49065,34607
49034,34614
48998,34621
48985,34624
48925,34635
48876,34644
48840,34651
48812,34657
48793,34661
48780,34665
48772,34669
48767,34672
48767,34673
48760,34684
48750,34705
48738,34734
48724,34769
48709,34806
48695,34842
48683,34877
48673,34905
48667,34926
48665,34936
48666,34937
48671,34945
48683,34964
48702,34990
48724,35023
48750,35061
48757,35071
48783,35109
48806,35144
48824,35174
48837,35196
48843,35209
48843,35211
48838,35219
48824,35236
48803,35258
48777,35286
48747,35316
48715,35347
48683,35378
48654,35406
48628,35430
48607,35448
48594,35458
48590,35460
48581,35456
48564,35446
48540,35430
48521,35418
48488,35395
48449,35368
48410,35341
48388,35327
48317,35278
48256,35311
48229,35325
48206,35336
48190,35342
48186,35343
48181,35337
48171,35318
48158,35290
48141,35253
48122,35209
48100,35160
48078,35108
48055,35054
48033,35000
48011,34948
47991,34899
47974,34855
47960,34818
47949,34789
47943,34771
47943,34764
47950,34756
47966,34743
47988,34728
47990,34727
48047,34681
48093,34628
48127,34569
48149,34507
48160,34441
48158,34375
48142,34310
48114,34247
48106,34233
48062,34178
48011,34133
47953,34100
47891,34078
47827,34068
47761,34069
47697,34083
47636,34108
47579,34147
47561,34162
47516,34211
47484,34263
47461,34320
47449,34377
47446,34441
47456,34506
47479,34568
47513,34627
47557,34679
47610,34723
47617,34727
47639,34743
47656,34756
47664,34764
47664,34764
47662,34773
47655,34794
47644,34824
47629,34863
47611,34908
47591,34958
47569,35010
47547,35065
47524,35118
47502,35170
47481,35218
47462,35261
47445,35296
47433,35323
47424,35339
47421,35343
47410,35340
47390,35331
47364,35318
47350,35311
47290,35278
47218,35327
47181,35352
47141,35379
47104,35405
47085,35418
47058,35435
47036,35450
47021,35458
47015,35460
47008,35455
46992,35441
46969,35420
46939,35393
46906,35362
46885,35341
46848,35305
46816,35273
46791,35246
46773,35225
46764,35212
46763,35210
46767,35200
46778,35180
46795,35153
46817,35119
46842,35082
46849,35071
46876,35033
46899,34999
46918,34970
46933,34949
46940,34938
46941,34937
46940,34928
46934,34908
46924,34880
46912,34846
46899,34810
46884,34773
46870,34738
46857,34708
46847,34686
46840,34673
46839,34673
46835,34669
46828,34666
46816,34662
46798,34658
46773,34652
46738,34645
46692,34637
46634,34626
46621,34624
46583,34617
46551,34610
46526,34603
46512,34599
46510,34597
46506,34588
46504,34566
46502,34535
46500,34496
46500,34454
46499,34409
46500,34365
46501,34325
46503,34289
46505,34263
46508,34246
46509,34243
46519,34240
46541,34234
46572,34227
46612,34219
46657,34210
46682,34206
46729,34197
46771,34189
46806,34182
46831,34177
46845,34174
46848,34173
46852,34166
46860,34147
46872,34120
46886,34088
46901,34053
46916,34018
46930,33985
46941,33957
46949,33936
46953,33926
46953,33926
46949,33918
46938,33900
46920,33874
46898,33841
46873,33803
46858,33781
46831,33741
46807,33705
46787,33675
46772,33651
46764,33637
46763,33634
46768,33627
46782,33611
46802,33588
46828,33561
46857,33531
46889,33499
46920,33468
46949,33439
46975,33414
46995,33394
47009,33383
47013,33380
47021,33384
47039,33395
47065,33412
47098,33434
47136,33460
47165,33479
47311,33578
47555,33478
47588,33303
47621,33128
47985,33128
48018,33303
" /> 
</g>
<g style="fill:#000000; fill-opacity:0.0; 
stroke:#000000; stroke-width:3.93701; stroke-opacity:1; 
stroke-linecap:round; stroke-linejoin:round;">
</g>
<g style="fill:#000000; fill-opacity:0.0; 
stroke:#000000; stroke-width:59.0551; stroke-opacity:1; 
stroke-linecap:round; stroke-linejoin:round;">
<path d="M53190 38004
L53246 38023
L53265 38042
L53284 38079
L53284 38135
L53265 38173
L53246 38192
L53209 38210
L53059 38210
L53059 37817
L53190 37817
L53228 37835
L53246 37854
L53265 37892
L53265 37929
L53246 37967
L53228 37985
L53190 38004
L53059 38004
" />
<path d="M53396 37817
L53621 37817
" />
<path d="M53509 38210
L53509 37817
" />
<path d="M53959 38210
L53734 38210
" />
<path d="M53846 38210
L53846 37817
L53809 37873
L53771 37910
L53734 37929
" />
<path d="M49424 42528
L49424 42753
" />
<path d="M49424 42640
L49031 42640
L49087 42678
L49124 42715
L49143 42753
" />
<path d="M49031 42284
L49031 42246
L49050 42209
L49068 42190
L49106 42171
L49181 42153
L49274 42153
L49349 42171
L49387 42190
L49406 42209
L49424 42246
L49424 42284
L49406 42321
L49387 42340
L49349 42359
L49274 42378
L49181 42378
L49106 42359
L49068 42340
L49050 42321
L49031 42284
" />
<path d="M49162 41815
L49424 41815
" />
<path d="M49162 41984
L49368 41984
L49406 41965
L49424 41928
L49424 41871
L49406 41834
L49387 41815
" />
<path d="M49218 41497
L49218 41628
" />
<path d="M49424 41628
L49031 41628
L49031 41440
" />
<path d="M41868 25367
L41868 25648
L41850 25704
L41812 25742
L41756 25760
L41718 25760
" />
<path d="M42262 25760
L42037 25760
" />
<path d="M42149 25760
L42149 25367
L42112 25423
L42074 25460
L42037 25479
" />
<path d="M43918 38817
L43918 39098
L43900 39154
L43862 39192
L43806 39210
L43768 39210
" />
<path d="M44087 38854
L44106 38835
L44143 38817
L44237 38817
L44274 38835
L44293 38854
L44312 38892
L44312 38929
L44293 38985
L44068 39210
L44312 39210
" />
<path d="M53368 25367
L53368 25648
L53350 25704
L53312 25742
L53256 25760
L53218 25760
" />
<path d="M53518 25367
L53762 25367
L53631 25517
L53687 25517
L53724 25535
L53743 25554
L53762 25592
L53762 25685
L53743 25723
L53724 25742
L53687 25760
L53574 25760
L53537 25742
L53518 25723
" />
</g>
<g style="fill:#000000; fill-opacity:0.0; 
stroke:#000000; stroke-width:62.9921; stroke-opacity:1; 
stroke-linecap:round; stroke-linejoin:round;">
<path d="M49017 38357
L49017 38567
" />
<path d="M49017 38387
L49032 38372
L49062 38357
L49107 38357
L49137 38372
L49152 38402
L49152 38567
" />
<path d="M49482 38567
L49377 38417
" />
<path d="M49302 38567
L49302 38252
L49422 38252
L49452 38267
L49467 38282
L49482 38312
L49482 38357
L49467 38387
L49452 38402
L49422 38417
L49302 38417
" />
<path d="M49722 38402
L49617 38402
" />
<path d="M49617 38567
L49617 38252
L49767 38252
" />
<path d="M49872 38282
L49887 38267
L49917 38252
L49992 38252
L50022 38267
L50037 38282
L50052 38312
L50052 38342
L50037 38387
L49857 38567
L50052 38567
" />
<path d="M50322 38357
L50322 38567
" />
<path d="M50247 38237
L50172 38462
L50367 38462
" />
<path d="M50637 38567
L50487 38567
L50487 38252
" />
<path d="M50802 38252
L50832 38252
L50862 38267
L50877 38282
L50892 38312
L50907 38372
L50907 38447
L50892 38507
L50877 38537
L50862 38552
L50832 38567
L50802 38567
L50772 38552
L50757 38537
L50742 38507
L50727 38447
L50727 38372
L50742 38312
L50757 38282
L50772 38267
L50802 38252
" />
<path d="M51207 38567
L51027 38567
" />
<path d="M51117 38567
L51117 38252
L51087 38297
L51057 38327
L51027 38342
" />
<path d="M51342 38447
L51582 38447
" />
<path d="M51462 38567
L51462 38327
" />
</g>
<g style="fill:#000000; fill-opacity:0.0; 
stroke:#000000; stroke-width:59.0551; stroke-opacity:1; 
stroke-linecap:round; stroke-linejoin:round;">
<path d="M45884 26892
L45884 26301
L46109 26301
L46165 26329
L46193 26357
L46222 26414
L46222 26498
L46193 26554
L46165 26582
L46109 26610
L45884 26610
" />
<path d="M46475 26892
L46475 26498
" />
<path d="M46475 26610
L46503 26554
L46531 26526
L46587 26498
L46643 26498
" />
<path d="M46925 26892
L46868 26864
L46840 26835
L46812 26779
L46812 26610
L46840 26554
L46868 26526
L46925 26498
L47009 26498
L47065 26526
L47093 26554
L47121 26610
L47121 26779
L47093 26835
L47065 26864
L47009 26892
L46925 26892
" />
<path d="M47824 26892
L47824 26301
L48021 26723
L48218 26301
L48218 26892
" />
<path d="M48499 26892
L48499 26498
" />
<path d="M48499 26301
L48471 26329
L48499 26357
L48528 26329
L48499 26301
L48499 26357
" />
<path d="M48781 26498
L48781 26892
" />
<path d="M48781 26554
L48809 26526
L48865 26498
L48949 26498
L49006 26526
L49034 26582
L49034 26892
" />
<path d="M49315 26892
L49315 26498
" />
<path d="M49315 26301
L49287 26329
L49315 26357
L49343 26329
L49315 26301
L49315 26357
" />
<path d="M43219 23788
L43219 23198
L43444 23198
L43500 23226
L43528 23254
L43556 23310
L43556 23395
L43528 23451
L43500 23479
L43444 23507
L43219 23507
" />
<path d="M44147 23788
L43950 23507
" />
<path d="M43809 23788
L43809 23198
L44034 23198
L44091 23226
L44119 23254
L44147 23310
L44147 23395
L44119 23451
L44091 23479
L44034 23507
L43809 23507
" />
<path d="M44512 23198
L44625 23198
L44681 23226
L44737 23282
L44766 23395
L44766 23591
L44737 23704
L44681 23760
L44625 23788
L44512 23788
L44456 23760
L44400 23704
L44372 23591
L44372 23395
L44400 23282
L44456 23226
L44512 23198
" />
<path d="M45019 23788
L45019 23198
L45215 23620
L45412 23198
L45412 23788
" />
<path d="M45694 23788
L45694 23198
" />
<path d="M45975 23788
L45975 23198
L46312 23788
L46312 23198
" />
<path d="M46593 23788
L46593 23198
" />
<path d="M47268 23198
L47409 23788
L47521 23366
L47634 23788
L47775 23198
" />
<path d="M48000 23788
L48000 23198
" />
<path d="M48196 23198
L48534 23198
" />
<path d="M48365 23788
L48365 23198
" />
<path d="M48731 23788
L48731 23198
" />
<path d="M48731 23479
L49068 23479
" />
<path d="M49068 23788
L49068 23198
" />
<path d="M49799 23788
L49799 23198
L50024 23198
L50080 23226
L50109 23254
L50137 23310
L50137 23395
L50109 23451
L50080 23479
L50024 23507
L49799 23507
" />
<path d="M50390 23788
L50390 23198
" />
<path d="M50671 23788
L50671 23198
L51009 23788
L51009 23198
" />
<path d="M51402 23198
L51515 23198
L51571 23226
L51627 23282
L51655 23395
L51655 23591
L51627 23704
L51571 23760
L51515 23788
L51402 23788
L51346 23760
L51290 23704
L51262 23591
L51262 23395
L51290 23282
L51346 23226
L51402 23198
" />
<path d="M51908 23198
L51908 23676
L51937 23732
L51965 23760
L52021 23788
L52133 23788
L52190 23760
L52218 23732
L52246 23676
L52246 23198
" />
<path d="M52443 23198
L52780 23198
" />
<path d="M52611 23788
L52611 23198
" />
<path d="M52949 23760
L53033 23788
L53174 23788
L53230 23760
L53258 23732
L53286 23676
L53286 23620
L53258 23563
L53230 23535
L53174 23507
L53061 23479
L53005 23451
L52977 23423
L52949 23366
L52949 23310
L52977 23254
L53005 23226
L53061 23198
L53202 23198
L53286 23226
" />
<path d="M41868 42651
L41868 42932
L41850 42989
L41812 43026
L41756 43045
L41718 43045
" />
<path d="M42243 42651
L42056 42651
L42037 42839
L42056 42820
L42093 42801
L42187 42801
L42224 42820
L42243 42839
L42262 42876
L42262 42970
L42243 43007
L42224 43026
L42187 43045
L42093 43045
L42056 43026
L42037 43007
" />
</g> 
</svg>
