G04 #@! TF.FileFunction,Soldermask,Top*
%FSLAX46Y46*%
G04 Gerber Fmt 4.6, Leading zero omitted, Abs format (unit mm)*
G04 Created by KiCad (PCBNEW 4.0.7-e2-6376~58~ubuntu16.04.1) date Mon Apr  2 12:22:34 2018*
%MOMM*%
%LPD*%
G01*
G04 APERTURE LIST*
%ADD10C,0.100000*%
%ADD11R,2.100000X2.100000*%
%ADD12O,2.100000X2.100000*%
%ADD13R,1.600000X1.600000*%
%ADD14C,1.600000*%
%ADD15O,2.127200X2.127200*%
%ADD16R,2.127200X2.127200*%
%ADD17C,1.924000*%
%ADD18C,1.900000*%
G04 APERTURE END LIST*
D10*
D11*
X135890000Y-98933000D03*
D12*
X135890000Y-101473000D03*
D13*
X128397000Y-107950000D03*
D14*
X128397000Y-105950000D03*
D11*
X106680000Y-67310000D03*
D12*
X106680000Y-69850000D03*
X106680000Y-72390000D03*
X106680000Y-74930000D03*
X106680000Y-77470000D03*
X106680000Y-80010000D03*
X106680000Y-82550000D03*
X106680000Y-85090000D03*
X106680000Y-87630000D03*
X106680000Y-90170000D03*
X106680000Y-92710000D03*
X106680000Y-95250000D03*
D11*
X111887000Y-101473000D03*
D12*
X111887000Y-104013000D03*
X111887000Y-106553000D03*
D11*
X135890000Y-67310000D03*
D12*
X135890000Y-69850000D03*
X135890000Y-72390000D03*
X135890000Y-74930000D03*
X135890000Y-77470000D03*
X135890000Y-80010000D03*
X135890000Y-82550000D03*
X135890000Y-85090000D03*
X135890000Y-87630000D03*
X135890000Y-90170000D03*
X135890000Y-92710000D03*
X135890000Y-95250000D03*
D15*
X121666000Y-99949000D03*
X121666000Y-102489000D03*
X124206000Y-99949000D03*
X124206000Y-102489000D03*
X126746000Y-99949000D03*
X126746000Y-102489000D03*
D16*
X129286000Y-99949000D03*
D15*
X129286000Y-102489000D03*
D17*
X113637144Y-67365000D03*
X113637144Y-69905000D03*
X113637144Y-72445000D03*
X113637144Y-74985000D03*
X113637144Y-77525000D03*
X113637144Y-80065000D03*
X113637144Y-82605000D03*
X113637144Y-85145000D03*
X113637144Y-87685000D03*
X113637144Y-90225000D03*
X113637144Y-92765000D03*
X113637144Y-95305000D03*
X128877144Y-67365000D03*
X128877144Y-69905000D03*
X128877144Y-72445000D03*
X128877144Y-74985000D03*
X128877144Y-77525000D03*
X128877144Y-80065000D03*
X128877144Y-82605000D03*
X128877144Y-85145000D03*
X128877144Y-87685000D03*
X128877144Y-90225000D03*
X128877144Y-92765000D03*
X128877144Y-95305000D03*
X125956144Y-76128000D03*
D18*
X125956144Y-78668000D03*
D11*
X106680000Y-106553000D03*
D12*
X106680000Y-104013000D03*
X106680000Y-101473000D03*
X106680000Y-98933000D03*
D13*
X119100000Y-68500000D03*
D14*
X121100000Y-68500000D03*
D13*
X120400000Y-83000000D03*
D14*
X122400000Y-83000000D03*
M02*
