M48
;DRILL file {KiCad 4.0.7-e2-6376~58~ubuntu16.04.1} date Mon Apr  2 12:22:36 2018
;FORMAT={-:-/ absolute / inch / decimal}
FMAT,2
INCH,TZ
T1C0.016
T2C0.024
T3C0.030
T4C0.031
T5C0.039
T6C0.040
%
G90
G05
M72
T1
X4.3175Y-3.81
X4.41Y-3.795
X4.54Y-3.5175
X4.54Y-3.96
X4.565Y-3.0025
X4.645Y-3.7
X4.745Y-2.965
X4.905Y-3.55
T2
X4.689Y-2.6969
X4.7402Y-3.2677
X4.7677Y-2.6969
X4.8189Y-3.2677
X5.055Y-4.1713
X5.055Y-4.25
T3
X4.4739Y-2.6522
X4.4739Y-2.7522
X4.4739Y-2.8522
X4.4739Y-2.9522
X4.4739Y-3.0522
X4.4739Y-3.1522
X4.4739Y-3.2522
X4.4739Y-3.3522
X4.4739Y-3.4522
X4.4739Y-3.5522
X4.4739Y-3.6522
X4.4739Y-3.7522
X5.0739Y-2.6522
X5.0739Y-2.7522
X5.0739Y-2.8522
X5.0739Y-2.9522
X5.0739Y-3.0522
X5.0739Y-3.1522
X5.0739Y-3.2522
X5.0739Y-3.3522
X5.0739Y-3.4522
X5.0739Y-3.5522
X5.0739Y-3.6522
X5.0739Y-3.7522
T4
X4.9589Y-2.9972
X4.9589Y-3.0972
T5
X4.2Y-2.65
X4.2Y-2.75
X4.2Y-2.85
X4.2Y-2.95
X4.2Y-3.05
X4.2Y-3.15
X4.2Y-3.25
X4.2Y-3.35
X4.2Y-3.45
X4.2Y-3.55
X4.2Y-3.65
X4.2Y-3.75
X4.2Y-3.895
X4.2Y-3.995
X4.2Y-4.095
X4.2Y-4.195
X4.405Y-3.995
X4.405Y-4.095
X4.405Y-4.195
X5.35Y-2.65
X5.35Y-2.75
X5.35Y-2.85
X5.35Y-2.95
X5.35Y-3.05
X5.35Y-3.15
X5.35Y-3.25
X5.35Y-3.35
X5.35Y-3.45
X5.35Y-3.55
X5.35Y-3.65
X5.35Y-3.75
X5.35Y-3.895
X5.35Y-3.995
T6
X4.79Y-3.935
X4.79Y-4.035
X4.89Y-3.935
X4.89Y-4.035
X4.99Y-3.935
X4.99Y-4.035
X5.09Y-3.935
X5.09Y-4.035
T0
M30
