G04 #@! TF.FileFunction,Soldermask,Bot*
%FSLAX46Y46*%
G04 Gerber Fmt 4.6, Leading zero omitted, Abs format (unit mm)*
G04 Created by KiCad (PCBNEW 4.0.7-e2-6376~58~ubuntu16.04.1) date Mon Apr  2 12:22:34 2018*
%MOMM*%
%LPD*%
G01*
G04 APERTURE LIST*
%ADD10C,0.100000*%
%ADD11R,2.100000X2.100000*%
%ADD12O,2.100000X2.100000*%
%ADD13R,1.600000X1.600000*%
%ADD14C,1.600000*%
%ADD15R,4.200000X2.400000*%
%ADD16R,1.900000X2.400000*%
%ADD17O,2.127200X2.127200*%
%ADD18R,2.127200X2.127200*%
%ADD19C,1.924000*%
%ADD20C,1.900000*%
G04 APERTURE END LIST*
D10*
X122248334Y-70474667D02*
X121915000Y-70474667D01*
X122315000Y-70674667D02*
X122081667Y-69974667D01*
X121848334Y-70674667D01*
X121615000Y-70674667D02*
X121615000Y-69974667D01*
X121381667Y-70474667D01*
X121148334Y-69974667D01*
X121148334Y-70674667D01*
X120848334Y-70641333D02*
X120748334Y-70674667D01*
X120581667Y-70674667D01*
X120515000Y-70641333D01*
X120481667Y-70608000D01*
X120448334Y-70541333D01*
X120448334Y-70474667D01*
X120481667Y-70408000D01*
X120515000Y-70374667D01*
X120581667Y-70341333D01*
X120715000Y-70308000D01*
X120781667Y-70274667D01*
X120815000Y-70241333D01*
X120848334Y-70174667D01*
X120848334Y-70108000D01*
X120815000Y-70041333D01*
X120781667Y-70008000D01*
X120715000Y-69974667D01*
X120548334Y-69974667D01*
X120448334Y-70008000D01*
X119781667Y-70674667D02*
X120181667Y-70674667D01*
X119981667Y-70674667D02*
X119981667Y-69974667D01*
X120048333Y-70074667D01*
X120115000Y-70141333D01*
X120181667Y-70174667D01*
X119115000Y-70674667D02*
X119515000Y-70674667D01*
X119315000Y-70674667D02*
X119315000Y-69974667D01*
X119381666Y-70074667D01*
X119448333Y-70141333D01*
X119515000Y-70174667D01*
X118448333Y-70674667D02*
X118848333Y-70674667D01*
X118648333Y-70674667D02*
X118648333Y-69974667D01*
X118714999Y-70074667D01*
X118781666Y-70141333D01*
X118848333Y-70174667D01*
X118214999Y-69974667D02*
X117748332Y-69974667D01*
X118048332Y-70674667D01*
D11*
X135890000Y-98933000D03*
D12*
X135890000Y-101473000D03*
D13*
X128397000Y-107950000D03*
D14*
X128397000Y-105950000D03*
D11*
X106680000Y-67310000D03*
D12*
X106680000Y-69850000D03*
X106680000Y-72390000D03*
X106680000Y-74930000D03*
X106680000Y-77470000D03*
X106680000Y-80010000D03*
X106680000Y-82550000D03*
X106680000Y-85090000D03*
X106680000Y-87630000D03*
X106680000Y-90170000D03*
X106680000Y-92710000D03*
X106680000Y-95250000D03*
D11*
X111887000Y-101473000D03*
D12*
X111887000Y-104013000D03*
X111887000Y-106553000D03*
D11*
X135890000Y-67310000D03*
D12*
X135890000Y-69850000D03*
X135890000Y-72390000D03*
X135890000Y-74930000D03*
X135890000Y-77470000D03*
X135890000Y-80010000D03*
X135890000Y-82550000D03*
X135890000Y-85090000D03*
X135890000Y-87630000D03*
X135890000Y-90170000D03*
X135890000Y-92710000D03*
X135890000Y-95250000D03*
D15*
X120269000Y-72288000D03*
D16*
X120269000Y-78588000D03*
X117969000Y-78588000D03*
X122569000Y-78588000D03*
D17*
X121666000Y-99949000D03*
X121666000Y-102489000D03*
X124206000Y-99949000D03*
X124206000Y-102489000D03*
X126746000Y-99949000D03*
X126746000Y-102489000D03*
D18*
X129286000Y-99949000D03*
D17*
X129286000Y-102489000D03*
D19*
X113637144Y-67365000D03*
X113637144Y-69905000D03*
X113637144Y-72445000D03*
X113637144Y-74985000D03*
X113637144Y-77525000D03*
X113637144Y-80065000D03*
X113637144Y-82605000D03*
X113637144Y-85145000D03*
X113637144Y-87685000D03*
X113637144Y-90225000D03*
X113637144Y-92765000D03*
X113637144Y-95305000D03*
X128877144Y-67365000D03*
X128877144Y-69905000D03*
X128877144Y-72445000D03*
X128877144Y-74985000D03*
X128877144Y-77525000D03*
X128877144Y-80065000D03*
X128877144Y-82605000D03*
X128877144Y-85145000D03*
X128877144Y-87685000D03*
X128877144Y-90225000D03*
X128877144Y-92765000D03*
X128877144Y-95305000D03*
X125956144Y-76128000D03*
D20*
X125956144Y-78668000D03*
D11*
X106680000Y-106553000D03*
D12*
X106680000Y-104013000D03*
X106680000Y-101473000D03*
X106680000Y-98933000D03*
D13*
X119100000Y-68500000D03*
D14*
X121100000Y-68500000D03*
D13*
X120400000Y-83000000D03*
D14*
X122400000Y-83000000D03*
M02*
