M48
;DRILL file {KiCad 4.0.6-e0-6349~53~ubuntu16.04.1} date Mon Jun 26 21:18:35 2017
;FORMAT={-:-/ absolute / inch / decimal}
FMAT,2
INCH,TZ
T1C0.016
T2C0.024
T3C0.028
T4C0.030
T5C0.039
T6C0.040
%
G90
G05
M72
T1
X5.54Y-2.6
X5.8575Y-3.79
X6.14Y-3.98
T2
X5.69Y-2.915
X5.69Y-3.015
X5.69Y-3.325
X5.69Y-3.425
X5.97Y-3.8963
X5.97Y-3.975
T3
X5.55Y-2.38
X5.75Y-2.38
T4
X5.205Y-2.57
X5.205Y-2.67
X5.205Y-2.77
X5.205Y-2.87
X5.205Y-2.97
X5.205Y-3.07
X5.205Y-3.17
X5.205Y-3.27
X5.205Y-3.37
X5.205Y-3.47
X5.205Y-3.57
X5.205Y-3.67
X5.805Y-2.57
X5.805Y-2.67
X5.805Y-2.77
X5.805Y-2.87
X5.805Y-2.97
X5.805Y-3.07
X5.805Y-3.17
X5.805Y-3.27
X5.805Y-3.37
X5.805Y-3.47
X5.805Y-3.57
X5.805Y-3.67
T5
X4.9425Y-2.365
X4.95Y-2.57
X4.95Y-2.67
X4.95Y-2.77
X4.95Y-2.87
X4.95Y-2.97
X4.95Y-3.07
X4.95Y-3.17
X4.95Y-3.27
X4.95Y-3.37
X4.95Y-3.47
X4.95Y-3.57
X4.95Y-3.67
X5.0425Y-2.365
X5.98Y-2.39
X6.08Y-2.39
X6.08Y-2.57
X6.08Y-2.67
X6.08Y-2.77
X6.08Y-2.87
X6.08Y-2.97
X6.08Y-3.07
X6.08Y-3.17
X6.08Y-3.27
X6.08Y-3.37
X6.08Y-3.47
X6.08Y-3.57
X6.08Y-3.67
X6.18Y-2.39
T6
X5.435Y-3.89
X5.435Y-3.99
X5.535Y-3.89
X5.535Y-3.99
X5.635Y-3.89
X5.635Y-3.99
X5.735Y-3.89
X5.735Y-3.99
T0
M30
