G04 #@! TF.FileFunction,Soldermask,Top*
%FSLAX46Y46*%
G04 Gerber Fmt 4.6, Leading zero omitted, Abs format (unit mm)*
G04 Created by KiCad (PCBNEW 4.0.6-e0-6349~53~ubuntu16.04.1) date Mon Jun 26 21:18:09 2017*
%MOMM*%
%LPD*%
G01*
G04 APERTURE LIST*
%ADD10C,0.200000*%
%ADD11C,1.924000*%
%ADD12C,1.900000*%
%ADD13R,2.100000X2.100000*%
%ADD14O,2.100000X2.100000*%
%ADD15R,1.600000X1.600000*%
%ADD16C,1.600000*%
%ADD17O,2.127200X2.127200*%
%ADD18R,2.127200X2.127200*%
%ADD19C,1.800000*%
%ADD20O,1.800000X1.800000*%
G04 APERTURE END LIST*
D10*
D11*
X132207000Y-65278000D03*
X132207000Y-67818000D03*
X132207000Y-70358000D03*
X132207000Y-72898000D03*
X132207000Y-75438000D03*
X132207000Y-77978000D03*
X132207000Y-80518000D03*
X132207000Y-83058000D03*
X132207000Y-85598000D03*
X132207000Y-88138000D03*
X132207000Y-90678000D03*
X132207000Y-93218000D03*
X147447000Y-65278000D03*
X147447000Y-67818000D03*
X147447000Y-70358000D03*
X147447000Y-72898000D03*
X147447000Y-75438000D03*
X147447000Y-77978000D03*
X147447000Y-80518000D03*
X147447000Y-83058000D03*
X147447000Y-85598000D03*
X147447000Y-88138000D03*
X147447000Y-90678000D03*
X147447000Y-93218000D03*
D12*
X144526000Y-74041000D03*
X144526000Y-76581000D03*
X144526000Y-84455000D03*
X144526000Y-86995000D03*
D13*
X125539500Y-60071000D03*
D14*
X128079500Y-60071000D03*
D15*
X151638000Y-100965000D03*
D16*
X151638000Y-98965000D03*
D13*
X125730000Y-65278000D03*
D14*
X125730000Y-67818000D03*
X125730000Y-70358000D03*
X125730000Y-72898000D03*
X125730000Y-75438000D03*
X125730000Y-77978000D03*
X125730000Y-80518000D03*
X125730000Y-83058000D03*
X125730000Y-85598000D03*
X125730000Y-88138000D03*
X125730000Y-90678000D03*
X125730000Y-93218000D03*
D13*
X151892000Y-60706000D03*
D14*
X154432000Y-60706000D03*
X156972000Y-60706000D03*
D13*
X154432000Y-65278000D03*
D14*
X154432000Y-67818000D03*
X154432000Y-70358000D03*
X154432000Y-72898000D03*
X154432000Y-75438000D03*
X154432000Y-77978000D03*
X154432000Y-80518000D03*
X154432000Y-83058000D03*
X154432000Y-85598000D03*
X154432000Y-88138000D03*
X154432000Y-90678000D03*
X154432000Y-93218000D03*
D17*
X138049000Y-98806000D03*
X138049000Y-101346000D03*
X140589000Y-98806000D03*
X140589000Y-101346000D03*
X143129000Y-98806000D03*
X143129000Y-101346000D03*
D18*
X145669000Y-98806000D03*
D17*
X145669000Y-101346000D03*
D19*
X140970000Y-60452000D03*
D20*
X146050000Y-60452000D03*
M02*
