G04 #@! TF.FileFunction,Legend,Top*
%FSLAX46Y46*%
G04 Gerber Fmt 4.6, Leading zero omitted, Abs format (unit mm)*
G04 Created by KiCad (PCBNEW 4.0.6-e0-6349~53~ubuntu16.04.1) date Mon Jun 26 21:18:09 2017*
%MOMM*%
%LPD*%
G01*
G04 APERTURE LIST*
%ADD10C,0.200000*%
%ADD11C,0.300000*%
%ADD12C,0.120000*%
%ADD13C,0.150000*%
%ADD14C,0.010000*%
%ADD15C,0.160000*%
G04 APERTURE END LIST*
D10*
D11*
X143720286Y-59352571D02*
X143220286Y-58638286D01*
X142863143Y-59352571D02*
X142863143Y-57852571D01*
X143434571Y-57852571D01*
X143577429Y-57924000D01*
X143648857Y-57995429D01*
X143720286Y-58138286D01*
X143720286Y-58352571D01*
X143648857Y-58495429D01*
X143577429Y-58566857D01*
X143434571Y-58638286D01*
X142863143Y-58638286D01*
X147510572Y-101199143D02*
X148653429Y-101199143D01*
X148082000Y-101770571D02*
X148082000Y-100627714D01*
X148189143Y-99377428D02*
X148189143Y-98234571D01*
X156654572Y-63099143D02*
X157797429Y-63099143D01*
X151320572Y-63353143D02*
X152463429Y-63353143D01*
X151892000Y-63924571D02*
X151892000Y-62781714D01*
X124650572Y-62337143D02*
X125793429Y-62337143D01*
X125222000Y-62908571D02*
X125222000Y-61765714D01*
X127698572Y-62337143D02*
X128841429Y-62337143D01*
X125182571Y-102461143D02*
X125396857Y-102532571D01*
X125754000Y-102532571D01*
X125896857Y-102461143D01*
X125968286Y-102389714D01*
X126039714Y-102246857D01*
X126039714Y-102104000D01*
X125968286Y-101961143D01*
X125896857Y-101889714D01*
X125754000Y-101818286D01*
X125468286Y-101746857D01*
X125325428Y-101675429D01*
X125254000Y-101604000D01*
X125182571Y-101461143D01*
X125182571Y-101318286D01*
X125254000Y-101175429D01*
X125325428Y-101104000D01*
X125468286Y-101032571D01*
X125825428Y-101032571D01*
X126039714Y-101104000D01*
X126682571Y-101746857D02*
X127182571Y-101746857D01*
X127396857Y-102532571D02*
X126682571Y-102532571D01*
X126682571Y-101032571D01*
X127396857Y-101032571D01*
X128039714Y-102532571D02*
X128039714Y-101032571D01*
X129468286Y-102532571D02*
X128754000Y-102532571D01*
X128754000Y-101032571D01*
D10*
X130596000Y-59872571D02*
X130738857Y-59920190D01*
X130786476Y-59967810D01*
X130834095Y-60063048D01*
X130834095Y-60205905D01*
X130786476Y-60301143D01*
X130738857Y-60348762D01*
X130643619Y-60396381D01*
X130262666Y-60396381D01*
X130262666Y-59396381D01*
X130596000Y-59396381D01*
X130691238Y-59444000D01*
X130738857Y-59491619D01*
X130786476Y-59586857D01*
X130786476Y-59682095D01*
X130738857Y-59777333D01*
X130691238Y-59824952D01*
X130596000Y-59872571D01*
X130262666Y-59872571D01*
X131215047Y-60110667D02*
X131691238Y-60110667D01*
X131119809Y-60396381D02*
X131453142Y-59396381D01*
X131786476Y-60396381D01*
X131976952Y-59396381D02*
X132548381Y-59396381D01*
X132262666Y-60396381D02*
X132262666Y-59396381D01*
X132738857Y-59396381D02*
X133310286Y-59396381D01*
X133024571Y-60396381D02*
X133024571Y-59396381D01*
X133643619Y-59872571D02*
X133976953Y-59872571D01*
X134119810Y-60396381D02*
X133643619Y-60396381D01*
X133643619Y-59396381D01*
X134119810Y-59396381D01*
X135119810Y-60396381D02*
X134786476Y-59920190D01*
X134548381Y-60396381D02*
X134548381Y-59396381D01*
X134929334Y-59396381D01*
X135024572Y-59444000D01*
X135072191Y-59491619D01*
X135119810Y-59586857D01*
X135119810Y-59729714D01*
X135072191Y-59824952D01*
X135024572Y-59872571D01*
X134929334Y-59920190D01*
X134548381Y-59920190D01*
X135738857Y-59920190D02*
X135738857Y-60396381D01*
X135405524Y-59396381D02*
X135738857Y-59920190D01*
X136072191Y-59396381D01*
X151035143Y-58872381D02*
X151035143Y-57872381D01*
X151273238Y-57872381D01*
X151416096Y-57920000D01*
X151511334Y-58015238D01*
X151558953Y-58110476D01*
X151606572Y-58300952D01*
X151606572Y-58443810D01*
X151558953Y-58634286D01*
X151511334Y-58729524D01*
X151416096Y-58824762D01*
X151273238Y-58872381D01*
X151035143Y-58872381D01*
X151987524Y-58824762D02*
X152130381Y-58872381D01*
X152368477Y-58872381D01*
X152463715Y-58824762D01*
X152511334Y-58777143D01*
X152558953Y-58681905D01*
X152558953Y-58586667D01*
X152511334Y-58491429D01*
X152463715Y-58443810D01*
X152368477Y-58396190D01*
X152178000Y-58348571D01*
X152082762Y-58300952D01*
X152035143Y-58253333D01*
X151987524Y-58158095D01*
X151987524Y-58062857D01*
X152035143Y-57967619D01*
X152082762Y-57920000D01*
X152178000Y-57872381D01*
X152416096Y-57872381D01*
X152558953Y-57920000D01*
X153511334Y-58872381D02*
X152939905Y-58872381D01*
X153225619Y-58872381D02*
X153225619Y-57872381D01*
X153130381Y-58015238D01*
X153035143Y-58110476D01*
X152939905Y-58158095D01*
X154082762Y-58300952D02*
X153987524Y-58253333D01*
X153939905Y-58205714D01*
X153892286Y-58110476D01*
X153892286Y-58062857D01*
X153939905Y-57967619D01*
X153987524Y-57920000D01*
X154082762Y-57872381D01*
X154273239Y-57872381D01*
X154368477Y-57920000D01*
X154416096Y-57967619D01*
X154463715Y-58062857D01*
X154463715Y-58110476D01*
X154416096Y-58205714D01*
X154368477Y-58253333D01*
X154273239Y-58300952D01*
X154082762Y-58300952D01*
X153987524Y-58348571D01*
X153939905Y-58396190D01*
X153892286Y-58491429D01*
X153892286Y-58681905D01*
X153939905Y-58777143D01*
X153987524Y-58824762D01*
X154082762Y-58872381D01*
X154273239Y-58872381D01*
X154368477Y-58824762D01*
X154416096Y-58777143D01*
X154463715Y-58681905D01*
X154463715Y-58491429D01*
X154416096Y-58396190D01*
X154368477Y-58348571D01*
X154273239Y-58300952D01*
X155225620Y-58348571D02*
X155368477Y-58396190D01*
X155416096Y-58443810D01*
X155463715Y-58539048D01*
X155463715Y-58681905D01*
X155416096Y-58777143D01*
X155368477Y-58824762D01*
X155273239Y-58872381D01*
X154892286Y-58872381D01*
X154892286Y-57872381D01*
X155225620Y-57872381D01*
X155320858Y-57920000D01*
X155368477Y-57967619D01*
X155416096Y-58062857D01*
X155416096Y-58158095D01*
X155368477Y-58253333D01*
X155320858Y-58300952D01*
X155225620Y-58348571D01*
X154892286Y-58348571D01*
X155844667Y-57967619D02*
X155892286Y-57920000D01*
X155987524Y-57872381D01*
X156225620Y-57872381D01*
X156320858Y-57920000D01*
X156368477Y-57967619D01*
X156416096Y-58062857D01*
X156416096Y-58158095D01*
X156368477Y-58300952D01*
X155797048Y-58872381D01*
X156416096Y-58872381D01*
X157035143Y-57872381D02*
X157130382Y-57872381D01*
X157225620Y-57920000D01*
X157273239Y-57967619D01*
X157320858Y-58062857D01*
X157368477Y-58253333D01*
X157368477Y-58491429D01*
X157320858Y-58681905D01*
X157273239Y-58777143D01*
X157225620Y-58824762D01*
X157130382Y-58872381D01*
X157035143Y-58872381D01*
X156939905Y-58824762D01*
X156892286Y-58777143D01*
X156844667Y-58681905D01*
X156797048Y-58491429D01*
X156797048Y-58253333D01*
X156844667Y-58062857D01*
X156892286Y-57967619D01*
X156939905Y-57920000D01*
X157035143Y-57872381D01*
X130849714Y-103385429D02*
X131516381Y-103385429D01*
X130944952Y-103385429D02*
X130897333Y-103337810D01*
X130849714Y-103242572D01*
X130849714Y-103099714D01*
X130897333Y-103004476D01*
X130992571Y-102956857D01*
X131516381Y-102956857D01*
X131516381Y-101909238D02*
X131040190Y-102242572D01*
X131516381Y-102480667D02*
X130516381Y-102480667D01*
X130516381Y-102099714D01*
X130564000Y-102004476D01*
X130611619Y-101956857D01*
X130706857Y-101909238D01*
X130849714Y-101909238D01*
X130944952Y-101956857D01*
X130992571Y-102004476D01*
X131040190Y-102099714D01*
X131040190Y-102480667D01*
X130992571Y-101147333D02*
X130992571Y-101480667D01*
X131516381Y-101480667D02*
X130516381Y-101480667D01*
X130516381Y-101004476D01*
X130611619Y-100671143D02*
X130564000Y-100623524D01*
X130516381Y-100528286D01*
X130516381Y-100290190D01*
X130564000Y-100194952D01*
X130611619Y-100147333D01*
X130706857Y-100099714D01*
X130802095Y-100099714D01*
X130944952Y-100147333D01*
X131516381Y-100718762D01*
X131516381Y-100099714D01*
X130849714Y-99242571D02*
X131516381Y-99242571D01*
X130468762Y-99480667D02*
X131183048Y-99718762D01*
X131183048Y-99099714D01*
X131516381Y-98242571D02*
X131516381Y-98718762D01*
X130516381Y-98718762D01*
X130516381Y-97718762D02*
X130516381Y-97623523D01*
X130564000Y-97528285D01*
X130611619Y-97480666D01*
X130706857Y-97433047D01*
X130897333Y-97385428D01*
X131135429Y-97385428D01*
X131325905Y-97433047D01*
X131421143Y-97480666D01*
X131468762Y-97528285D01*
X131516381Y-97623523D01*
X131516381Y-97718762D01*
X131468762Y-97814000D01*
X131421143Y-97861619D01*
X131325905Y-97909238D01*
X131135429Y-97956857D01*
X130897333Y-97956857D01*
X130706857Y-97909238D01*
X130611619Y-97861619D01*
X130564000Y-97814000D01*
X130516381Y-97718762D01*
X131516381Y-96433047D02*
X131516381Y-97004476D01*
X131516381Y-96718762D02*
X130516381Y-96718762D01*
X130659238Y-96814000D01*
X130754476Y-96909238D01*
X130802095Y-97004476D01*
X131135429Y-96004476D02*
X131135429Y-95242571D01*
X131516381Y-95623523D02*
X130754476Y-95623523D01*
X133049239Y-62904667D02*
X133525430Y-62904667D01*
X132954001Y-63190381D02*
X133287334Y-62190381D01*
X133620668Y-63190381D01*
X134525430Y-63190381D02*
X134192096Y-62714190D01*
X133954001Y-63190381D02*
X133954001Y-62190381D01*
X134334954Y-62190381D01*
X134430192Y-62238000D01*
X134477811Y-62285619D01*
X134525430Y-62380857D01*
X134525430Y-62523714D01*
X134477811Y-62618952D01*
X134430192Y-62666571D01*
X134334954Y-62714190D01*
X133954001Y-62714190D01*
X134954001Y-63190381D02*
X134954001Y-62190381D01*
X135192096Y-62190381D01*
X135334954Y-62238000D01*
X135430192Y-62333238D01*
X135477811Y-62428476D01*
X135525430Y-62618952D01*
X135525430Y-62761810D01*
X135477811Y-62952286D01*
X135430192Y-63047524D01*
X135334954Y-63142762D01*
X135192096Y-63190381D01*
X134954001Y-63190381D01*
X135954001Y-62190381D02*
X135954001Y-62999905D01*
X136001620Y-63095143D01*
X136049239Y-63142762D01*
X136144477Y-63190381D01*
X136334954Y-63190381D01*
X136430192Y-63142762D01*
X136477811Y-63095143D01*
X136525430Y-62999905D01*
X136525430Y-62190381D01*
X137001620Y-63190381D02*
X137001620Y-62190381D01*
X137477810Y-63190381D02*
X137477810Y-62190381D01*
X138049239Y-63190381D01*
X138049239Y-62190381D01*
X138715905Y-62190381D02*
X138906382Y-62190381D01*
X139001620Y-62238000D01*
X139096858Y-62333238D01*
X139144477Y-62523714D01*
X139144477Y-62857048D01*
X139096858Y-63047524D01*
X139001620Y-63142762D01*
X138906382Y-63190381D01*
X138715905Y-63190381D01*
X138620667Y-63142762D01*
X138525429Y-63047524D01*
X138477810Y-62857048D01*
X138477810Y-62523714D01*
X138525429Y-62333238D01*
X138620667Y-62238000D01*
X138715905Y-62190381D01*
X140334953Y-63190381D02*
X140334953Y-62190381D01*
X140715906Y-62190381D01*
X140811144Y-62238000D01*
X140858763Y-62285619D01*
X140906382Y-62380857D01*
X140906382Y-62523714D01*
X140858763Y-62618952D01*
X140811144Y-62666571D01*
X140715906Y-62714190D01*
X140334953Y-62714190D01*
X141906382Y-63190381D02*
X141573048Y-62714190D01*
X141334953Y-63190381D02*
X141334953Y-62190381D01*
X141715906Y-62190381D01*
X141811144Y-62238000D01*
X141858763Y-62285619D01*
X141906382Y-62380857D01*
X141906382Y-62523714D01*
X141858763Y-62618952D01*
X141811144Y-62666571D01*
X141715906Y-62714190D01*
X141334953Y-62714190D01*
X142525429Y-62190381D02*
X142715906Y-62190381D01*
X142811144Y-62238000D01*
X142906382Y-62333238D01*
X142954001Y-62523714D01*
X142954001Y-62857048D01*
X142906382Y-63047524D01*
X142811144Y-63142762D01*
X142715906Y-63190381D01*
X142525429Y-63190381D01*
X142430191Y-63142762D01*
X142334953Y-63047524D01*
X142287334Y-62857048D01*
X142287334Y-62523714D01*
X142334953Y-62333238D01*
X142430191Y-62238000D01*
X142525429Y-62190381D01*
X144144477Y-63190381D02*
X144144477Y-62190381D01*
X144477811Y-62904667D01*
X144811144Y-62190381D01*
X144811144Y-63190381D01*
X145287334Y-63190381D02*
X145287334Y-62190381D01*
X145763524Y-63190381D02*
X145763524Y-62190381D01*
X146334953Y-63190381D01*
X146334953Y-62190381D01*
X146811143Y-63190381D02*
X146811143Y-62190381D01*
D12*
X126809500Y-61401000D02*
X129409500Y-61401000D01*
X129409500Y-61401000D02*
X129409500Y-58741000D01*
X129409500Y-58741000D02*
X126809500Y-58741000D01*
X126809500Y-58741000D02*
X126809500Y-61401000D01*
X125539500Y-61401000D02*
X124209500Y-61401000D01*
X124209500Y-61401000D02*
X124209500Y-60071000D01*
X149588000Y-99965000D02*
X153688000Y-99965000D01*
X149588000Y-99925000D02*
X153688000Y-99925000D01*
X149589000Y-99885000D02*
X153687000Y-99885000D01*
X149591000Y-99845000D02*
X153685000Y-99845000D01*
X149594000Y-99805000D02*
X153682000Y-99805000D01*
X149597000Y-99765000D02*
X153679000Y-99765000D01*
X149601000Y-99725000D02*
X150858000Y-99725000D01*
X152418000Y-99725000D02*
X153675000Y-99725000D01*
X149606000Y-99685000D02*
X150858000Y-99685000D01*
X152418000Y-99685000D02*
X153670000Y-99685000D01*
X149612000Y-99645000D02*
X150858000Y-99645000D01*
X152418000Y-99645000D02*
X153664000Y-99645000D01*
X149619000Y-99605000D02*
X150858000Y-99605000D01*
X152418000Y-99605000D02*
X153657000Y-99605000D01*
X149626000Y-99565000D02*
X150858000Y-99565000D01*
X152418000Y-99565000D02*
X153650000Y-99565000D01*
X149634000Y-99525000D02*
X150858000Y-99525000D01*
X152418000Y-99525000D02*
X153642000Y-99525000D01*
X149643000Y-99485000D02*
X150858000Y-99485000D01*
X152418000Y-99485000D02*
X153633000Y-99485000D01*
X149653000Y-99445000D02*
X150858000Y-99445000D01*
X152418000Y-99445000D02*
X153623000Y-99445000D01*
X149664000Y-99405000D02*
X150858000Y-99405000D01*
X152418000Y-99405000D02*
X153612000Y-99405000D01*
X149675000Y-99365000D02*
X150858000Y-99365000D01*
X152418000Y-99365000D02*
X153601000Y-99365000D01*
X149688000Y-99325000D02*
X150858000Y-99325000D01*
X152418000Y-99325000D02*
X153588000Y-99325000D01*
X149701000Y-99285000D02*
X150858000Y-99285000D01*
X152418000Y-99285000D02*
X153575000Y-99285000D01*
X149715000Y-99244000D02*
X150858000Y-99244000D01*
X152418000Y-99244000D02*
X153561000Y-99244000D01*
X149731000Y-99204000D02*
X150858000Y-99204000D01*
X152418000Y-99204000D02*
X153545000Y-99204000D01*
X149747000Y-99164000D02*
X150858000Y-99164000D01*
X152418000Y-99164000D02*
X153529000Y-99164000D01*
X149764000Y-99124000D02*
X150858000Y-99124000D01*
X152418000Y-99124000D02*
X153512000Y-99124000D01*
X149782000Y-99084000D02*
X150858000Y-99084000D01*
X152418000Y-99084000D02*
X153494000Y-99084000D01*
X149801000Y-99044000D02*
X150858000Y-99044000D01*
X152418000Y-99044000D02*
X153475000Y-99044000D01*
X149821000Y-99004000D02*
X150858000Y-99004000D01*
X152418000Y-99004000D02*
X153455000Y-99004000D01*
X149842000Y-98964000D02*
X150858000Y-98964000D01*
X152418000Y-98964000D02*
X153434000Y-98964000D01*
X149865000Y-98924000D02*
X150858000Y-98924000D01*
X152418000Y-98924000D02*
X153411000Y-98924000D01*
X149888000Y-98884000D02*
X150858000Y-98884000D01*
X152418000Y-98884000D02*
X153388000Y-98884000D01*
X149913000Y-98844000D02*
X150858000Y-98844000D01*
X152418000Y-98844000D02*
X153363000Y-98844000D01*
X149939000Y-98804000D02*
X150858000Y-98804000D01*
X152418000Y-98804000D02*
X153337000Y-98804000D01*
X149966000Y-98764000D02*
X150858000Y-98764000D01*
X152418000Y-98764000D02*
X153310000Y-98764000D01*
X149995000Y-98724000D02*
X150858000Y-98724000D01*
X152418000Y-98724000D02*
X153281000Y-98724000D01*
X150025000Y-98684000D02*
X150858000Y-98684000D01*
X152418000Y-98684000D02*
X153251000Y-98684000D01*
X150057000Y-98644000D02*
X150858000Y-98644000D01*
X152418000Y-98644000D02*
X153219000Y-98644000D01*
X150091000Y-98604000D02*
X150858000Y-98604000D01*
X152418000Y-98604000D02*
X153185000Y-98604000D01*
X150126000Y-98564000D02*
X150858000Y-98564000D01*
X152418000Y-98564000D02*
X153150000Y-98564000D01*
X150163000Y-98524000D02*
X150858000Y-98524000D01*
X152418000Y-98524000D02*
X153113000Y-98524000D01*
X150202000Y-98484000D02*
X150858000Y-98484000D01*
X152418000Y-98484000D02*
X153074000Y-98484000D01*
X150243000Y-98444000D02*
X150858000Y-98444000D01*
X152418000Y-98444000D02*
X153033000Y-98444000D01*
X150287000Y-98404000D02*
X150858000Y-98404000D01*
X152418000Y-98404000D02*
X152989000Y-98404000D01*
X150333000Y-98364000D02*
X150858000Y-98364000D01*
X152418000Y-98364000D02*
X152943000Y-98364000D01*
X150382000Y-98324000D02*
X150858000Y-98324000D01*
X152418000Y-98324000D02*
X152894000Y-98324000D01*
X150434000Y-98284000D02*
X150858000Y-98284000D01*
X152418000Y-98284000D02*
X152842000Y-98284000D01*
X150490000Y-98244000D02*
X150858000Y-98244000D01*
X152418000Y-98244000D02*
X152786000Y-98244000D01*
X150550000Y-98204000D02*
X150858000Y-98204000D01*
X152418000Y-98204000D02*
X152726000Y-98204000D01*
X150615000Y-98164000D02*
X152661000Y-98164000D01*
X150686000Y-98124000D02*
X152590000Y-98124000D01*
X150764000Y-98084000D02*
X152512000Y-98084000D01*
X150852000Y-98044000D02*
X152424000Y-98044000D01*
X150952000Y-98004000D02*
X152324000Y-98004000D01*
X151071000Y-97964000D02*
X152205000Y-97964000D01*
X151223000Y-97924000D02*
X152053000Y-97924000D01*
X151473000Y-97884000D02*
X151803000Y-97884000D01*
X151638000Y-102665000D02*
X151638000Y-101765000D01*
X151188000Y-102215000D02*
X152088000Y-102215000D01*
X150858911Y-98025639D02*
G75*
G03X150858000Y-101903995I779089J-1939361D01*
G01*
X152417089Y-98025639D02*
G75*
G02X152418000Y-101903995I-779089J-1939361D01*
G01*
X152417089Y-98025639D02*
G75*
G03X150858000Y-98026005I-779089J-1939361D01*
G01*
X124400000Y-66548000D02*
X124400000Y-94548000D01*
X124400000Y-94548000D02*
X127060000Y-94548000D01*
X127060000Y-94548000D02*
X127060000Y-66548000D01*
X127060000Y-66548000D02*
X124400000Y-66548000D01*
X124400000Y-65278000D02*
X124400000Y-63948000D01*
X124400000Y-63948000D02*
X125730000Y-63948000D01*
X153162000Y-62036000D02*
X158302000Y-62036000D01*
X158302000Y-62036000D02*
X158302000Y-59376000D01*
X158302000Y-59376000D02*
X153162000Y-59376000D01*
X153162000Y-59376000D02*
X153162000Y-62036000D01*
X151892000Y-62036000D02*
X150562000Y-62036000D01*
X150562000Y-62036000D02*
X150562000Y-60706000D01*
X153102000Y-66548000D02*
X153102000Y-94548000D01*
X153102000Y-94548000D02*
X155762000Y-94548000D01*
X155762000Y-94548000D02*
X155762000Y-66548000D01*
X155762000Y-66548000D02*
X153102000Y-66548000D01*
X153102000Y-65278000D02*
X153102000Y-63948000D01*
X153102000Y-63948000D02*
X154432000Y-63948000D01*
D13*
X144399000Y-97409000D02*
X147066000Y-97409000D01*
X147066000Y-97409000D02*
X147066000Y-100076000D01*
X139319000Y-97536000D02*
X136779000Y-97536000D01*
X136779000Y-97536000D02*
X136779000Y-100076000D01*
X144399000Y-97536000D02*
X144399000Y-100076000D01*
X144399000Y-100076000D02*
X146939000Y-100076000D01*
X139319000Y-97536000D02*
X146939000Y-97536000D01*
X146939000Y-97536000D02*
X146939000Y-102616000D01*
X146939000Y-102616000D02*
X136779000Y-102616000D01*
X136779000Y-102616000D02*
X136779000Y-100076000D01*
D14*
G36*
X127555814Y-95512931D02*
X127639635Y-95957555D01*
X127948920Y-96085053D01*
X128258206Y-96212551D01*
X128629246Y-95960246D01*
X128733157Y-95889996D01*
X128827087Y-95827272D01*
X128906652Y-95774938D01*
X128967470Y-95735857D01*
X129005157Y-95712893D01*
X129015421Y-95707942D01*
X129033910Y-95720676D01*
X129073420Y-95755882D01*
X129129522Y-95809062D01*
X129197787Y-95875718D01*
X129273786Y-95951354D01*
X129353092Y-96031472D01*
X129431275Y-96111574D01*
X129503907Y-96187164D01*
X129566559Y-96253745D01*
X129614803Y-96306818D01*
X129644210Y-96341887D01*
X129651241Y-96353623D01*
X129641123Y-96375260D01*
X129612759Y-96422662D01*
X129569129Y-96491193D01*
X129513218Y-96576215D01*
X129448006Y-96673093D01*
X129410219Y-96728350D01*
X129341343Y-96829248D01*
X129280140Y-96920299D01*
X129229578Y-96996970D01*
X129192628Y-97054728D01*
X129172258Y-97089043D01*
X129169197Y-97096254D01*
X129176136Y-97116748D01*
X129195051Y-97164513D01*
X129223087Y-97232832D01*
X129257391Y-97314989D01*
X129295109Y-97404270D01*
X129333387Y-97493958D01*
X129369370Y-97577338D01*
X129400206Y-97647694D01*
X129423039Y-97698310D01*
X129435017Y-97722471D01*
X129435724Y-97723422D01*
X129454531Y-97728036D01*
X129504618Y-97738328D01*
X129580793Y-97753287D01*
X129677865Y-97771901D01*
X129790643Y-97793159D01*
X129856442Y-97805418D01*
X129976950Y-97828362D01*
X130085797Y-97850195D01*
X130177476Y-97869722D01*
X130246481Y-97885748D01*
X130287304Y-97897079D01*
X130295511Y-97900674D01*
X130303548Y-97925006D01*
X130310033Y-97979959D01*
X130314970Y-98059108D01*
X130318364Y-98156026D01*
X130320218Y-98264287D01*
X130320538Y-98377465D01*
X130319327Y-98489135D01*
X130316590Y-98592868D01*
X130312331Y-98682241D01*
X130306555Y-98750826D01*
X130299267Y-98792197D01*
X130294895Y-98800810D01*
X130268764Y-98811133D01*
X130213393Y-98825892D01*
X130136107Y-98843352D01*
X130044230Y-98861780D01*
X130012158Y-98867741D01*
X129857524Y-98896066D01*
X129735375Y-98918876D01*
X129641673Y-98937080D01*
X129572384Y-98951583D01*
X129523471Y-98963292D01*
X129490897Y-98973115D01*
X129470628Y-98981956D01*
X129458626Y-98990724D01*
X129456947Y-98992457D01*
X129440184Y-99020371D01*
X129414614Y-99074695D01*
X129382788Y-99148777D01*
X129347260Y-99235965D01*
X129310583Y-99329608D01*
X129275311Y-99423052D01*
X129243996Y-99509647D01*
X129219193Y-99582740D01*
X129203454Y-99635678D01*
X129199332Y-99661811D01*
X129199676Y-99662726D01*
X129213641Y-99684086D01*
X129245322Y-99731084D01*
X129291391Y-99798827D01*
X129348518Y-99882423D01*
X129413373Y-99976982D01*
X129431843Y-100003854D01*
X129497699Y-100101275D01*
X129555650Y-100190163D01*
X129602538Y-100265412D01*
X129635207Y-100321920D01*
X129650500Y-100354581D01*
X129651241Y-100358593D01*
X129638392Y-100379684D01*
X129602888Y-100421464D01*
X129549293Y-100479445D01*
X129482171Y-100549135D01*
X129406087Y-100626045D01*
X129325604Y-100705683D01*
X129245287Y-100783561D01*
X129169699Y-100855186D01*
X129103405Y-100916070D01*
X129050969Y-100961721D01*
X129016955Y-100987650D01*
X129007545Y-100991883D01*
X128985643Y-100981912D01*
X128940800Y-100955020D01*
X128880321Y-100915736D01*
X128833789Y-100884117D01*
X128749475Y-100826098D01*
X128649626Y-100757784D01*
X128549473Y-100689579D01*
X128495627Y-100653075D01*
X128313371Y-100529800D01*
X128160381Y-100612520D01*
X128090682Y-100648759D01*
X128031414Y-100676926D01*
X127991311Y-100692991D01*
X127981103Y-100695226D01*
X127968829Y-100678722D01*
X127944613Y-100632082D01*
X127910263Y-100559609D01*
X127867588Y-100465606D01*
X127818394Y-100354374D01*
X127764490Y-100230215D01*
X127707684Y-100097432D01*
X127649782Y-99960327D01*
X127592593Y-99823202D01*
X127537924Y-99690358D01*
X127487584Y-99566098D01*
X127443380Y-99454725D01*
X127407119Y-99360539D01*
X127380609Y-99287844D01*
X127365658Y-99240941D01*
X127363254Y-99224833D01*
X127382311Y-99204286D01*
X127424036Y-99170933D01*
X127479706Y-99131702D01*
X127484378Y-99128599D01*
X127628264Y-99013423D01*
X127744283Y-98879053D01*
X127831430Y-98729784D01*
X127888699Y-98569913D01*
X127915086Y-98403737D01*
X127909585Y-98235552D01*
X127871190Y-98069655D01*
X127798895Y-97910342D01*
X127777626Y-97875487D01*
X127666996Y-97734737D01*
X127536302Y-97621714D01*
X127390064Y-97537003D01*
X127232808Y-97481194D01*
X127069057Y-97454874D01*
X126903333Y-97458630D01*
X126740162Y-97493050D01*
X126584065Y-97558723D01*
X126439567Y-97656235D01*
X126394869Y-97695813D01*
X126281112Y-97819703D01*
X126198218Y-97950124D01*
X126141356Y-98096315D01*
X126109687Y-98241088D01*
X126101869Y-98403860D01*
X126127938Y-98567440D01*
X126185245Y-98726298D01*
X126271144Y-98874906D01*
X126382986Y-99007735D01*
X126518123Y-99119256D01*
X126535883Y-99131011D01*
X126592150Y-99169508D01*
X126634923Y-99202863D01*
X126655372Y-99224160D01*
X126655669Y-99224833D01*
X126651279Y-99247871D01*
X126633876Y-99300157D01*
X126605268Y-99377390D01*
X126567265Y-99475268D01*
X126521674Y-99589491D01*
X126470303Y-99715758D01*
X126414962Y-99849767D01*
X126357458Y-99987218D01*
X126299601Y-100123808D01*
X126243198Y-100255237D01*
X126190058Y-100377205D01*
X126141990Y-100485409D01*
X126100801Y-100575549D01*
X126068301Y-100643323D01*
X126046297Y-100684430D01*
X126037436Y-100695226D01*
X126010360Y-100686819D01*
X125959697Y-100664272D01*
X125894183Y-100631613D01*
X125858159Y-100612520D01*
X125705168Y-100529800D01*
X125522912Y-100653075D01*
X125429875Y-100716228D01*
X125328015Y-100785727D01*
X125232562Y-100851165D01*
X125184750Y-100884117D01*
X125117505Y-100929273D01*
X125060564Y-100965057D01*
X125021354Y-100986938D01*
X125008619Y-100991563D01*
X124990083Y-100979085D01*
X124949059Y-100944252D01*
X124889525Y-100890678D01*
X124815458Y-100821983D01*
X124730835Y-100741781D01*
X124677315Y-100690286D01*
X124583681Y-100598286D01*
X124502759Y-100515999D01*
X124437823Y-100446945D01*
X124392142Y-100394644D01*
X124368989Y-100362616D01*
X124366768Y-100356116D01*
X124377076Y-100331394D01*
X124405561Y-100281405D01*
X124449063Y-100211212D01*
X124504423Y-100125875D01*
X124568480Y-100030456D01*
X124586697Y-100003854D01*
X124653073Y-99907167D01*
X124712622Y-99820117D01*
X124762016Y-99747595D01*
X124797925Y-99694493D01*
X124817019Y-99665703D01*
X124818864Y-99662726D01*
X124816105Y-99639782D01*
X124801462Y-99589336D01*
X124777487Y-99518041D01*
X124746734Y-99432547D01*
X124711756Y-99339507D01*
X124675107Y-99245574D01*
X124639339Y-99157399D01*
X124607006Y-99081634D01*
X124580662Y-99024931D01*
X124562858Y-98993943D01*
X124561593Y-98992457D01*
X124550706Y-98983601D01*
X124532318Y-98974843D01*
X124502394Y-98965277D01*
X124456897Y-98953996D01*
X124391791Y-98940093D01*
X124303039Y-98922663D01*
X124186607Y-98900798D01*
X124038458Y-98873591D01*
X124006382Y-98867741D01*
X123911314Y-98849374D01*
X123828435Y-98831405D01*
X123765070Y-98815569D01*
X123728542Y-98803600D01*
X123723644Y-98800810D01*
X123715573Y-98776072D01*
X123709013Y-98720790D01*
X123703967Y-98641389D01*
X123700441Y-98544296D01*
X123698439Y-98435938D01*
X123697964Y-98322740D01*
X123699023Y-98211128D01*
X123701618Y-98107529D01*
X123705754Y-98018368D01*
X123711437Y-97950072D01*
X123718669Y-97909066D01*
X123723029Y-97900674D01*
X123747302Y-97892208D01*
X123802574Y-97878435D01*
X123883338Y-97860550D01*
X123984088Y-97839748D01*
X124099317Y-97817223D01*
X124162098Y-97805418D01*
X124281213Y-97783151D01*
X124387435Y-97762979D01*
X124475573Y-97745915D01*
X124540434Y-97732969D01*
X124576826Y-97725155D01*
X124582816Y-97723422D01*
X124592939Y-97703890D01*
X124614338Y-97656843D01*
X124644161Y-97589003D01*
X124679555Y-97507091D01*
X124717668Y-97417828D01*
X124755647Y-97327935D01*
X124790640Y-97244135D01*
X124819794Y-97173147D01*
X124840257Y-97121694D01*
X124849177Y-97096497D01*
X124849343Y-97095396D01*
X124839231Y-97075519D01*
X124810883Y-97029777D01*
X124767277Y-96962717D01*
X124711394Y-96878884D01*
X124646213Y-96782826D01*
X124608321Y-96727650D01*
X124539275Y-96626481D01*
X124477950Y-96534630D01*
X124427337Y-96456744D01*
X124390429Y-96397469D01*
X124370218Y-96361451D01*
X124367299Y-96353377D01*
X124379847Y-96334584D01*
X124414537Y-96294457D01*
X124466937Y-96237493D01*
X124532616Y-96168185D01*
X124607144Y-96091031D01*
X124686087Y-96010525D01*
X124765017Y-95931163D01*
X124839500Y-95857440D01*
X124905106Y-95793852D01*
X124957404Y-95744894D01*
X124991961Y-95715061D01*
X125003522Y-95707942D01*
X125022346Y-95717953D01*
X125067369Y-95746078D01*
X125134213Y-95789454D01*
X125218501Y-95845218D01*
X125315856Y-95910506D01*
X125389293Y-95960246D01*
X125760333Y-96212551D01*
X126378905Y-95957555D01*
X126462725Y-95512931D01*
X126546546Y-95068307D01*
X127471994Y-95068307D01*
X127555814Y-95512931D01*
X127555814Y-95512931D01*
G37*
X127555814Y-95512931D02*
X127639635Y-95957555D01*
X127948920Y-96085053D01*
X128258206Y-96212551D01*
X128629246Y-95960246D01*
X128733157Y-95889996D01*
X128827087Y-95827272D01*
X128906652Y-95774938D01*
X128967470Y-95735857D01*
X129005157Y-95712893D01*
X129015421Y-95707942D01*
X129033910Y-95720676D01*
X129073420Y-95755882D01*
X129129522Y-95809062D01*
X129197787Y-95875718D01*
X129273786Y-95951354D01*
X129353092Y-96031472D01*
X129431275Y-96111574D01*
X129503907Y-96187164D01*
X129566559Y-96253745D01*
X129614803Y-96306818D01*
X129644210Y-96341887D01*
X129651241Y-96353623D01*
X129641123Y-96375260D01*
X129612759Y-96422662D01*
X129569129Y-96491193D01*
X129513218Y-96576215D01*
X129448006Y-96673093D01*
X129410219Y-96728350D01*
X129341343Y-96829248D01*
X129280140Y-96920299D01*
X129229578Y-96996970D01*
X129192628Y-97054728D01*
X129172258Y-97089043D01*
X129169197Y-97096254D01*
X129176136Y-97116748D01*
X129195051Y-97164513D01*
X129223087Y-97232832D01*
X129257391Y-97314989D01*
X129295109Y-97404270D01*
X129333387Y-97493958D01*
X129369370Y-97577338D01*
X129400206Y-97647694D01*
X129423039Y-97698310D01*
X129435017Y-97722471D01*
X129435724Y-97723422D01*
X129454531Y-97728036D01*
X129504618Y-97738328D01*
X129580793Y-97753287D01*
X129677865Y-97771901D01*
X129790643Y-97793159D01*
X129856442Y-97805418D01*
X129976950Y-97828362D01*
X130085797Y-97850195D01*
X130177476Y-97869722D01*
X130246481Y-97885748D01*
X130287304Y-97897079D01*
X130295511Y-97900674D01*
X130303548Y-97925006D01*
X130310033Y-97979959D01*
X130314970Y-98059108D01*
X130318364Y-98156026D01*
X130320218Y-98264287D01*
X130320538Y-98377465D01*
X130319327Y-98489135D01*
X130316590Y-98592868D01*
X130312331Y-98682241D01*
X130306555Y-98750826D01*
X130299267Y-98792197D01*
X130294895Y-98800810D01*
X130268764Y-98811133D01*
X130213393Y-98825892D01*
X130136107Y-98843352D01*
X130044230Y-98861780D01*
X130012158Y-98867741D01*
X129857524Y-98896066D01*
X129735375Y-98918876D01*
X129641673Y-98937080D01*
X129572384Y-98951583D01*
X129523471Y-98963292D01*
X129490897Y-98973115D01*
X129470628Y-98981956D01*
X129458626Y-98990724D01*
X129456947Y-98992457D01*
X129440184Y-99020371D01*
X129414614Y-99074695D01*
X129382788Y-99148777D01*
X129347260Y-99235965D01*
X129310583Y-99329608D01*
X129275311Y-99423052D01*
X129243996Y-99509647D01*
X129219193Y-99582740D01*
X129203454Y-99635678D01*
X129199332Y-99661811D01*
X129199676Y-99662726D01*
X129213641Y-99684086D01*
X129245322Y-99731084D01*
X129291391Y-99798827D01*
X129348518Y-99882423D01*
X129413373Y-99976982D01*
X129431843Y-100003854D01*
X129497699Y-100101275D01*
X129555650Y-100190163D01*
X129602538Y-100265412D01*
X129635207Y-100321920D01*
X129650500Y-100354581D01*
X129651241Y-100358593D01*
X129638392Y-100379684D01*
X129602888Y-100421464D01*
X129549293Y-100479445D01*
X129482171Y-100549135D01*
X129406087Y-100626045D01*
X129325604Y-100705683D01*
X129245287Y-100783561D01*
X129169699Y-100855186D01*
X129103405Y-100916070D01*
X129050969Y-100961721D01*
X129016955Y-100987650D01*
X129007545Y-100991883D01*
X128985643Y-100981912D01*
X128940800Y-100955020D01*
X128880321Y-100915736D01*
X128833789Y-100884117D01*
X128749475Y-100826098D01*
X128649626Y-100757784D01*
X128549473Y-100689579D01*
X128495627Y-100653075D01*
X128313371Y-100529800D01*
X128160381Y-100612520D01*
X128090682Y-100648759D01*
X128031414Y-100676926D01*
X127991311Y-100692991D01*
X127981103Y-100695226D01*
X127968829Y-100678722D01*
X127944613Y-100632082D01*
X127910263Y-100559609D01*
X127867588Y-100465606D01*
X127818394Y-100354374D01*
X127764490Y-100230215D01*
X127707684Y-100097432D01*
X127649782Y-99960327D01*
X127592593Y-99823202D01*
X127537924Y-99690358D01*
X127487584Y-99566098D01*
X127443380Y-99454725D01*
X127407119Y-99360539D01*
X127380609Y-99287844D01*
X127365658Y-99240941D01*
X127363254Y-99224833D01*
X127382311Y-99204286D01*
X127424036Y-99170933D01*
X127479706Y-99131702D01*
X127484378Y-99128599D01*
X127628264Y-99013423D01*
X127744283Y-98879053D01*
X127831430Y-98729784D01*
X127888699Y-98569913D01*
X127915086Y-98403737D01*
X127909585Y-98235552D01*
X127871190Y-98069655D01*
X127798895Y-97910342D01*
X127777626Y-97875487D01*
X127666996Y-97734737D01*
X127536302Y-97621714D01*
X127390064Y-97537003D01*
X127232808Y-97481194D01*
X127069057Y-97454874D01*
X126903333Y-97458630D01*
X126740162Y-97493050D01*
X126584065Y-97558723D01*
X126439567Y-97656235D01*
X126394869Y-97695813D01*
X126281112Y-97819703D01*
X126198218Y-97950124D01*
X126141356Y-98096315D01*
X126109687Y-98241088D01*
X126101869Y-98403860D01*
X126127938Y-98567440D01*
X126185245Y-98726298D01*
X126271144Y-98874906D01*
X126382986Y-99007735D01*
X126518123Y-99119256D01*
X126535883Y-99131011D01*
X126592150Y-99169508D01*
X126634923Y-99202863D01*
X126655372Y-99224160D01*
X126655669Y-99224833D01*
X126651279Y-99247871D01*
X126633876Y-99300157D01*
X126605268Y-99377390D01*
X126567265Y-99475268D01*
X126521674Y-99589491D01*
X126470303Y-99715758D01*
X126414962Y-99849767D01*
X126357458Y-99987218D01*
X126299601Y-100123808D01*
X126243198Y-100255237D01*
X126190058Y-100377205D01*
X126141990Y-100485409D01*
X126100801Y-100575549D01*
X126068301Y-100643323D01*
X126046297Y-100684430D01*
X126037436Y-100695226D01*
X126010360Y-100686819D01*
X125959697Y-100664272D01*
X125894183Y-100631613D01*
X125858159Y-100612520D01*
X125705168Y-100529800D01*
X125522912Y-100653075D01*
X125429875Y-100716228D01*
X125328015Y-100785727D01*
X125232562Y-100851165D01*
X125184750Y-100884117D01*
X125117505Y-100929273D01*
X125060564Y-100965057D01*
X125021354Y-100986938D01*
X125008619Y-100991563D01*
X124990083Y-100979085D01*
X124949059Y-100944252D01*
X124889525Y-100890678D01*
X124815458Y-100821983D01*
X124730835Y-100741781D01*
X124677315Y-100690286D01*
X124583681Y-100598286D01*
X124502759Y-100515999D01*
X124437823Y-100446945D01*
X124392142Y-100394644D01*
X124368989Y-100362616D01*
X124366768Y-100356116D01*
X124377076Y-100331394D01*
X124405561Y-100281405D01*
X124449063Y-100211212D01*
X124504423Y-100125875D01*
X124568480Y-100030456D01*
X124586697Y-100003854D01*
X124653073Y-99907167D01*
X124712622Y-99820117D01*
X124762016Y-99747595D01*
X124797925Y-99694493D01*
X124817019Y-99665703D01*
X124818864Y-99662726D01*
X124816105Y-99639782D01*
X124801462Y-99589336D01*
X124777487Y-99518041D01*
X124746734Y-99432547D01*
X124711756Y-99339507D01*
X124675107Y-99245574D01*
X124639339Y-99157399D01*
X124607006Y-99081634D01*
X124580662Y-99024931D01*
X124562858Y-98993943D01*
X124561593Y-98992457D01*
X124550706Y-98983601D01*
X124532318Y-98974843D01*
X124502394Y-98965277D01*
X124456897Y-98953996D01*
X124391791Y-98940093D01*
X124303039Y-98922663D01*
X124186607Y-98900798D01*
X124038458Y-98873591D01*
X124006382Y-98867741D01*
X123911314Y-98849374D01*
X123828435Y-98831405D01*
X123765070Y-98815569D01*
X123728542Y-98803600D01*
X123723644Y-98800810D01*
X123715573Y-98776072D01*
X123709013Y-98720790D01*
X123703967Y-98641389D01*
X123700441Y-98544296D01*
X123698439Y-98435938D01*
X123697964Y-98322740D01*
X123699023Y-98211128D01*
X123701618Y-98107529D01*
X123705754Y-98018368D01*
X123711437Y-97950072D01*
X123718669Y-97909066D01*
X123723029Y-97900674D01*
X123747302Y-97892208D01*
X123802574Y-97878435D01*
X123883338Y-97860550D01*
X123984088Y-97839748D01*
X124099317Y-97817223D01*
X124162098Y-97805418D01*
X124281213Y-97783151D01*
X124387435Y-97762979D01*
X124475573Y-97745915D01*
X124540434Y-97732969D01*
X124576826Y-97725155D01*
X124582816Y-97723422D01*
X124592939Y-97703890D01*
X124614338Y-97656843D01*
X124644161Y-97589003D01*
X124679555Y-97507091D01*
X124717668Y-97417828D01*
X124755647Y-97327935D01*
X124790640Y-97244135D01*
X124819794Y-97173147D01*
X124840257Y-97121694D01*
X124849177Y-97096497D01*
X124849343Y-97095396D01*
X124839231Y-97075519D01*
X124810883Y-97029777D01*
X124767277Y-96962717D01*
X124711394Y-96878884D01*
X124646213Y-96782826D01*
X124608321Y-96727650D01*
X124539275Y-96626481D01*
X124477950Y-96534630D01*
X124427337Y-96456744D01*
X124390429Y-96397469D01*
X124370218Y-96361451D01*
X124367299Y-96353377D01*
X124379847Y-96334584D01*
X124414537Y-96294457D01*
X124466937Y-96237493D01*
X124532616Y-96168185D01*
X124607144Y-96091031D01*
X124686087Y-96010525D01*
X124765017Y-95931163D01*
X124839500Y-95857440D01*
X124905106Y-95793852D01*
X124957404Y-95744894D01*
X124991961Y-95715061D01*
X125003522Y-95707942D01*
X125022346Y-95717953D01*
X125067369Y-95746078D01*
X125134213Y-95789454D01*
X125218501Y-95845218D01*
X125315856Y-95910506D01*
X125389293Y-95960246D01*
X125760333Y-96212551D01*
X126378905Y-95957555D01*
X126462725Y-95512931D01*
X126546546Y-95068307D01*
X127471994Y-95068307D01*
X127555814Y-95512931D01*
D12*
X141650000Y-59592000D02*
X145370000Y-59592000D01*
X141650000Y-61312000D02*
X145370000Y-61312000D01*
D13*
X139954143Y-59876571D02*
X139954143Y-60876571D01*
X139311286Y-59876571D02*
X139311286Y-60662286D01*
X139382714Y-60805143D01*
X139525572Y-60876571D01*
X139739857Y-60876571D01*
X139882714Y-60805143D01*
X139954143Y-60733714D01*
X140668429Y-60876571D02*
X140668429Y-59376571D01*
X141239857Y-59376571D01*
X141382715Y-59448000D01*
X141454143Y-59519429D01*
X141525572Y-59662286D01*
X141525572Y-59876571D01*
X141454143Y-60019429D01*
X141382715Y-60090857D01*
X141239857Y-60162286D01*
X140668429Y-60162286D01*
X142954143Y-60876571D02*
X142097000Y-60876571D01*
X142525572Y-60876571D02*
X142525572Y-59376571D01*
X142382715Y-59590857D01*
X142239857Y-59733714D01*
X142097000Y-59805143D01*
X132168428Y-57908000D02*
X132882714Y-57908000D01*
X132025571Y-58336571D02*
X132525571Y-56836571D01*
X133025571Y-58336571D01*
X134382714Y-58336571D02*
X133882714Y-57622286D01*
X133525571Y-58336571D02*
X133525571Y-56836571D01*
X134096999Y-56836571D01*
X134239857Y-56908000D01*
X134311285Y-56979429D01*
X134382714Y-57122286D01*
X134382714Y-57336571D01*
X134311285Y-57479429D01*
X134239857Y-57550857D01*
X134096999Y-57622286D01*
X133525571Y-57622286D01*
X135025571Y-58336571D02*
X135025571Y-56836571D01*
X135382714Y-56836571D01*
X135596999Y-56908000D01*
X135739857Y-57050857D01*
X135811285Y-57193714D01*
X135882714Y-57479429D01*
X135882714Y-57693714D01*
X135811285Y-57979429D01*
X135739857Y-58122286D01*
X135596999Y-58265143D01*
X135382714Y-58336571D01*
X135025571Y-58336571D01*
X136525571Y-56836571D02*
X136525571Y-58050857D01*
X136596999Y-58193714D01*
X136668428Y-58265143D01*
X136811285Y-58336571D01*
X137096999Y-58336571D01*
X137239857Y-58265143D01*
X137311285Y-58193714D01*
X137382714Y-58050857D01*
X137382714Y-56836571D01*
X138097000Y-58336571D02*
X138097000Y-56836571D01*
X138668428Y-56836571D01*
X138811286Y-56908000D01*
X138882714Y-56979429D01*
X138954143Y-57122286D01*
X138954143Y-57336571D01*
X138882714Y-57479429D01*
X138811286Y-57550857D01*
X138668428Y-57622286D01*
X138097000Y-57622286D01*
X140454143Y-58336571D02*
X139954143Y-57622286D01*
X139597000Y-58336571D02*
X139597000Y-56836571D01*
X140168428Y-56836571D01*
X140311286Y-56908000D01*
X140382714Y-56979429D01*
X140454143Y-57122286D01*
X140454143Y-57336571D01*
X140382714Y-57479429D01*
X140311286Y-57550857D01*
X140168428Y-57622286D01*
X139597000Y-57622286D01*
X141382714Y-56836571D02*
X141668428Y-56836571D01*
X141811286Y-56908000D01*
X141954143Y-57050857D01*
X142025571Y-57336571D01*
X142025571Y-57836571D01*
X141954143Y-58122286D01*
X141811286Y-58265143D01*
X141668428Y-58336571D01*
X141382714Y-58336571D01*
X141239857Y-58265143D01*
X141097000Y-58122286D01*
X141025571Y-57836571D01*
X141025571Y-57336571D01*
X141097000Y-57050857D01*
X141239857Y-56908000D01*
X141382714Y-56836571D01*
X142668429Y-58336571D02*
X142668429Y-56836571D01*
X143168429Y-57908000D01*
X143668429Y-56836571D01*
X143668429Y-58336571D01*
X144382715Y-58336571D02*
X144382715Y-56836571D01*
X145097001Y-58336571D02*
X145097001Y-56836571D01*
X145954144Y-58336571D01*
X145954144Y-56836571D01*
X146668430Y-58336571D02*
X146668430Y-56836571D01*
X147382716Y-57765143D02*
X148525573Y-57765143D01*
X149882716Y-56836571D02*
X149597002Y-56836571D01*
X149454145Y-56908000D01*
X149382716Y-56979429D01*
X149239859Y-57193714D01*
X149168430Y-57479429D01*
X149168430Y-58050857D01*
X149239859Y-58193714D01*
X149311287Y-58265143D01*
X149454145Y-58336571D01*
X149739859Y-58336571D01*
X149882716Y-58265143D01*
X149954145Y-58193714D01*
X150025573Y-58050857D01*
X150025573Y-57693714D01*
X149954145Y-57550857D01*
X149882716Y-57479429D01*
X149739859Y-57408000D01*
X149454145Y-57408000D01*
X149311287Y-57479429D01*
X149239859Y-57550857D01*
X149168430Y-57693714D01*
X123138071Y-60856714D02*
X123185690Y-60713857D01*
X123233310Y-60666238D01*
X123328548Y-60618619D01*
X123471405Y-60618619D01*
X123566643Y-60666238D01*
X123614262Y-60713857D01*
X123661881Y-60809095D01*
X123661881Y-61190048D01*
X122661881Y-61190048D01*
X122661881Y-60856714D01*
X122709500Y-60761476D01*
X122757119Y-60713857D01*
X122852357Y-60666238D01*
X122947595Y-60666238D01*
X123042833Y-60713857D01*
X123090452Y-60761476D01*
X123138071Y-60856714D01*
X123138071Y-61190048D01*
X122661881Y-60332905D02*
X122661881Y-59761476D01*
X123661881Y-60047191D02*
X122661881Y-60047191D01*
X123661881Y-58904333D02*
X123661881Y-59475762D01*
X123661881Y-59190048D02*
X122661881Y-59190048D01*
X122804738Y-59285286D01*
X122899976Y-59380524D01*
X122947595Y-59475762D01*
X148935143Y-100131666D02*
X148982762Y-100179285D01*
X149030381Y-100322142D01*
X149030381Y-100417380D01*
X148982762Y-100560238D01*
X148887524Y-100655476D01*
X148792286Y-100703095D01*
X148601810Y-100750714D01*
X148458952Y-100750714D01*
X148268476Y-100703095D01*
X148173238Y-100655476D01*
X148078000Y-100560238D01*
X148030381Y-100417380D01*
X148030381Y-100322142D01*
X148078000Y-100179285D01*
X148125619Y-100131666D01*
X149030381Y-99179285D02*
X149030381Y-99750714D01*
X149030381Y-99465000D02*
X148030381Y-99465000D01*
X148173238Y-99560238D01*
X148268476Y-99655476D01*
X148316095Y-99750714D01*
X125396667Y-62400381D02*
X125396667Y-63114667D01*
X125349047Y-63257524D01*
X125253809Y-63352762D01*
X125110952Y-63400381D01*
X125015714Y-63400381D01*
X126396667Y-63400381D02*
X125825238Y-63400381D01*
X126110952Y-63400381D02*
X126110952Y-62400381D01*
X126015714Y-62543238D01*
X125920476Y-62638476D01*
X125825238Y-62686095D01*
X149014381Y-61039333D02*
X149728667Y-61039333D01*
X149871524Y-61086953D01*
X149966762Y-61182191D01*
X150014381Y-61325048D01*
X150014381Y-61420286D01*
X149109619Y-60610762D02*
X149062000Y-60563143D01*
X149014381Y-60467905D01*
X149014381Y-60229809D01*
X149062000Y-60134571D01*
X149109619Y-60086952D01*
X149204857Y-60039333D01*
X149300095Y-60039333D01*
X149442952Y-60086952D01*
X150014381Y-60658381D01*
X150014381Y-60039333D01*
X154098667Y-62400381D02*
X154098667Y-63114667D01*
X154051047Y-63257524D01*
X153955809Y-63352762D01*
X153812952Y-63400381D01*
X153717714Y-63400381D01*
X154479619Y-62400381D02*
X155098667Y-62400381D01*
X154765333Y-62781333D01*
X154908191Y-62781333D01*
X155003429Y-62828952D01*
X155051048Y-62876571D01*
X155098667Y-62971810D01*
X155098667Y-63209905D01*
X155051048Y-63305143D01*
X155003429Y-63352762D01*
X154908191Y-63400381D01*
X154622476Y-63400381D01*
X154527238Y-63352762D01*
X154479619Y-63305143D01*
D15*
X145567476Y-95827905D02*
X145567476Y-96475524D01*
X145605571Y-96551714D01*
X145643667Y-96589810D01*
X145719857Y-96627905D01*
X145872238Y-96627905D01*
X145948429Y-96589810D01*
X145986524Y-96551714D01*
X146024619Y-96475524D01*
X146024619Y-95827905D01*
X146824619Y-96627905D02*
X146367476Y-96627905D01*
X146596047Y-96627905D02*
X146596047Y-95827905D01*
X146519857Y-95942190D01*
X146443666Y-96018381D01*
X146367476Y-96056476D01*
D13*
X141771905Y-58377714D02*
X141771905Y-59044381D01*
X141533809Y-57996762D02*
X141295714Y-58711048D01*
X141914762Y-58711048D01*
X142200476Y-58044381D02*
X142867143Y-58044381D01*
X142438571Y-59044381D01*
X143438571Y-58044381D02*
X143533810Y-58044381D01*
X143629048Y-58092000D01*
X143676667Y-58139619D01*
X143724286Y-58234857D01*
X143771905Y-58425333D01*
X143771905Y-58663429D01*
X143724286Y-58853905D01*
X143676667Y-58949143D01*
X143629048Y-58996762D01*
X143533810Y-59044381D01*
X143438571Y-59044381D01*
X143343333Y-58996762D01*
X143295714Y-58949143D01*
X143248095Y-58853905D01*
X143200476Y-58663429D01*
X143200476Y-58425333D01*
X143248095Y-58234857D01*
X143295714Y-58139619D01*
X143343333Y-58092000D01*
X143438571Y-58044381D01*
X144200476Y-59044381D02*
X144200476Y-58044381D01*
X144771905Y-59044381D02*
X144343333Y-58472952D01*
X144771905Y-58044381D02*
X144200476Y-58615810D01*
X145724286Y-59044381D02*
X145152857Y-59044381D01*
X145438571Y-59044381D02*
X145438571Y-58044381D01*
X145343333Y-58187238D01*
X145248095Y-58282476D01*
X145152857Y-58330095D01*
M02*
